<svg class="marks" width="935" height="264" viewBox="0 0 935 264" version="1.1" xmlns="http://www.w3.org/2000/svg" xmlns:xlink="http://www.w3.org/1999/xlink"><g transform="translate(52,11)"><g class="mark-group role-frame root"><g transform="translate(0,0)"><path class="background" d="M0.5,0.5h819v200h-819Z" style="fill: transparent; stroke: #ddd;"></path><g><g class="mark-group role-axis"><g transform="translate(0.5,0.5)"><path class="background" d="M0,0h0v0h0Z" style="pointer-events: none; fill: none;"></path><g><g class="mark-rule role-axis-grid" style="pointer-events: none;"><line transform="translate(0,200)" x2="819" y2="0" style="fill: none; stroke: #ddd; stroke-width: 1; stroke-dasharray: ; opacity: 1;"></line><line transform="translate(0,160)" x2="819" y2="0" style="fill: none; stroke: #ddd; stroke-width: 1; stroke-dasharray: ; opacity: 1;"></line><line transform="translate(0,120)" x2="819" y2="0" style="fill: none; stroke: #ddd; stroke-width: 1; stroke-dasharray: ; opacity: 1;"></line><line transform="translate(0,80)" x2="819" y2="0" style="fill: none; stroke: #ddd; stroke-width: 1; stroke-dasharray: ; opacity: 1;"></line><line transform="translate(0,40)" x2="819" y2="0" style="fill: none; stroke: #ddd; stroke-width: 1; stroke-dasharray: ; opacity: 1;"></line><line transform="translate(0,0)" x2="819" y2="0" style="fill: none; stroke: #ddd; stroke-width: 1; stroke-dasharray: ; opacity: 1;"></line></g></g></g></g><g class="mark-rect role-mark marks"><path d="M1.0500000000000114,2.842170943040401e-14h18.900000000000002v6.140647928660144h-18.900000000000002Z" style="fill: #3182bd;"></path><path d="M1.0500000000000114,198.75832486736653h18.900000000000002v1.2416751326334747h-18.900000000000002Z" style="fill: #31a354;"></path><path d="M1.0500000000000114,6.140647928660172h18.900000000000002v3.3412349023591617h-18.900000000000002Z" style="fill: #6baed6;"></path><path d="M1.0500000000000114,79.17372163901119h18.900000000000002v22.46303194491476h-18.900000000000002Z" style="fill: #fd8d3c;"></path><path d="M1.0500000000000114,63.59634270233664h18.900000000000002v15.577378936674549h-18.900000000000002Z" style="fill: #e6550d;"></path><path d="M1.0500000000000114,101.63675358392595h18.900000000000002v97.12157128344057h-18.900000000000002Z" style="fill: #fdae6b;"></path><path d="M1.0500000000000114,22.395304210407545h18.900000000000002v41.2010384919291h-18.900000000000002Z" style="fill: #c6dbef;"></path><path d="M1.0500000000000114,9.481882831019334h18.900000000000002v12.913421379388211h-18.900000000000002Z" style="fill: #9ecae1;"></path><path d="M22.05000000000001,19.06928253246133h18.900000000000002v37.096009856885615h-18.900000000000002Z" style="fill: #c6dbef;"></path><path d="M22.05000000000001,70.93166524500046h18.900000000000002v27.29599090133638h-18.900000000000002Z" style="fill: #fd8d3c;"></path><path d="M22.05000000000001,8.1508861719268h18.900000000000002v10.91839636053453h-18.900000000000002Z" style="fill: #9ecae1;"></path><path d="M22.05000000000001,56.165292389346945h18.900000000000002v14.766372855653515h-18.900000000000002Z" style="fill: #e6550d;"></path><path d="M22.05000000000001,-5.684341886080802e-14h18.900000000000002v4.852620604682045h-18.900000000000002Z" style="fill: #3182bd;"></path><path d="M22.05000000000001,98.22765614633684h18.900000000000002v101.77234385366316h-18.900000000000002Z" style="fill: #fdae6b;"></path><path d="M22.05000000000001,4.852620604681988h18.900000000000002v3.298265567244812h-18.900000000000002Z" style="fill: #6baed6;"></path><path d="M43.05000000000001,101.10511009555464h18.900000000000002v98.89488990444536h-18.900000000000002Z" style="fill: #fdae6b;"></path><path d="M43.05000000000001,52.181138346489405h18.900000000000002v15.970087245533875h-18.900000000000002Z" style="fill: #e6550d;"></path><path d="M43.05000000000001,3.5562941420855907h18.900000000000002v3.572912339011225h-18.900000000000002Z" style="fill: #6baed6;"></path><path d="M43.05000000000001,7.129206481096816h18.900000000000002v9.771499792272522h-18.900000000000002Z" style="fill: #9ecae1;"></path><path d="M43.05000000000001,68.15122559202328h18.900000000000002v32.953884503531356h-18.900000000000002Z" style="fill: #fd8d3c;"></path><path d="M43.05000000000001,16.900706273369337h18.900000000000002v35.28043207312007h-18.900000000000002Z" style="fill: #c6dbef;"></path><path d="M43.05000000000001,0h18.900000000000002v3.5562941420855907h-18.900000000000002Z" style="fill: #3182bd;"></path><path d="M64.05000000000001,7.2602051797115905h18.900000000000002v9.09677882201018h-18.900000000000002Z" style="fill: #9ecae1;"></path><path d="M64.05000000000001,93.7369969151302h18.900000000000002v106.2630030848698h-18.900000000000002Z" style="fill: #fdae6b;"></path><path d="M64.05000000000001,16.35698400172177h18.900000000000002v30.08824162421982h-18.900000000000002Z" style="fill: #c6dbef;"></path><path d="M64.05000000000001,2.9700839371546977h18.900000000000002v4.290121242556893h-18.900000000000002Z" style="fill: #6baed6;"></path><path d="M64.05000000000001,-5.684341886080802e-14h18.900000000000002v2.9700839371547545h-18.900000000000002Z" style="fill: #3182bd;"></path><path d="M64.05000000000001,46.44522562594159h18.900000000000002v15.639572422698905h-18.900000000000002Z" style="fill: #e6550d;"></path><path d="M64.05000000000001,62.084798048640494h18.900000000000002v31.652198866489712h-18.900000000000002Z" style="fill: #fd8d3c;"></path><path d="M85.05000000000001,8.024445330144857h18.900000000000002v9.193569815331443h-18.900000000000002Z" style="fill: #9ecae1;"></path><path d="M85.05000000000001,5.684341886080802e-14h18.900000000000002v2.8165271688587836h-18.900000000000002Z" style="fill: #3182bd;"></path><path d="M85.05000000000001,59.79806031619506h18.900000000000002v36.18971701873254h-18.900000000000002Z" style="fill: #fd8d3c;"></path><path d="M85.05000000000001,17.2180151454763h18.900000000000002v26.451441477348226h-18.900000000000002Z" style="fill: #c6dbef;"></path><path d="M85.05000000000001,95.9877773349276h18.900000000000002v104.0122226650724h-18.900000000000002Z" style="fill: #fdae6b;"></path><path d="M85.05000000000001,2.8165271688588405h18.900000000000002v5.207918161286017h-18.900000000000002Z" style="fill: #6baed6;"></path><path d="M85.05000000000001,43.66945662282453h18.900000000000002v16.128603693370536h-18.900000000000002Z" style="fill: #e6550d;"></path><path d="M106.05000000000001,53.51499885504924h18.900000000000002v34.543164643920306h-18.900000000000002Z" style="fill: #fd8d3c;"></path><path d="M106.05000000000001,88.05816349896955h18.900000000000002v111.94183650103045h-18.900000000000002Z" style="fill: #fdae6b;"></path><path d="M106.05000000000001,0h18.900000000000002v2.347149072589872h-18.900000000000002Z" style="fill: #3182bd;"></path><path d="M106.05000000000001,16.52163956949849h18.900000000000002v20.58621479276391h-18.900000000000002Z" style="fill: #c6dbef;"></path><path d="M106.05000000000001,37.1078543622624h18.900000000000002v16.40714449278684h-18.900000000000002Z" style="fill: #e6550d;"></path><path d="M106.05000000000001,2.347149072589872h18.900000000000002v4.934737806274342h-18.900000000000002Z" style="fill: #6baed6;"></path><path d="M106.05000000000001,7.2818868788642135h18.900000000000002v9.239752690634276h-18.900000000000002Z" style="fill: #9ecae1;"></path><path d="M127.05000000000001,6.559700359366332h18.900000000000002v5.668876853773327h-18.900000000000002Z" style="fill: #9ecae1;"></path><path d="M127.05000000000001,2.842170943040401e-14h18.900000000000002v2.004352887584133h-18.900000000000002Z" style="fill: #3182bd;"></path><path d="M127.05000000000001,2.0043528875841616h18.900000000000002v4.55534747178217h-18.900000000000002Z" style="fill: #6baed6;"></path><path d="M127.05000000000001,30.146277268816107h18.900000000000002v14.80994078048289h-18.900000000000002Z" style="fill: #e6550d;"></path><path d="M127.05000000000001,44.956218049299h18.900000000000002v36.705977628182396h-18.900000000000002Z" style="fill: #fd8d3c;"></path><path d="M127.05000000000001,81.66219567748139h18.900000000000002v118.33780432251861h-18.900000000000002Z" style="fill: #fdae6b;"></path><path d="M127.05000000000001,12.228577213139658h18.900000000000002v17.91770005567645h-18.900000000000002Z" style="fill: #c6dbef;"></path><path d="M148.05,-5.684341886080802e-14h18.900000000000002v1.7218822536400467h-18.900000000000002Z" style="fill: #3182bd;"></path><path d="M148.05,49.55475838784554h18.900000000000002v33.087149187592345h-18.900000000000002Z" style="fill: #fd8d3c;"></path><path d="M148.05,17.033129352183977h18.900000000000002v18.712808609411297h-18.900000000000002Z" style="fill: #c6dbef;"></path><path d="M148.05,6.6174298375184435h18.900000000000002v10.415699514665533h-18.900000000000002Z" style="fill: #9ecae1;"></path><path d="M148.05,82.64190757543788h18.900000000000002v117.35809242456212h-18.900000000000002Z" style="fill: #fdae6b;"></path><path d="M148.05,35.745937961595274h18.900000000000002v13.808820426250264h-18.900000000000002Z" style="fill: #e6550d;"></path><path d="M148.05,1.7218822536399898h18.900000000000002v4.895547583878454h-18.900000000000002Z" style="fill: #6baed6;"></path><path d="M169.05,16.95886063702153h18.900000000000002v19.62924261774839h-18.900000000000002Z" style="fill: #c6dbef;"></path><path d="M169.05,1.8421765548202416h18.900000000000002v5.031154456441811h-18.900000000000002Z" style="fill: #6baed6;"></path><path d="M169.05,6.873331011262053h18.900000000000002v10.085529625759477h-18.900000000000002Z" style="fill: #9ecae1;"></path><path d="M169.05,0h18.900000000000002v1.8421765548202416h-18.900000000000002Z" style="fill: #3182bd;"></path><path d="M169.05,36.58810325476992h18.900000000000002v13.808583923526442h-18.900000000000002Z" style="fill: #e6550d;"></path><path d="M169.05,50.39668717829636h18.900000000000002v33.36042416502187h-18.900000000000002Z" style="fill: #fd8d3c;"></path><path d="M169.05,83.75711134331823h18.900000000000002v116.24288865668177h-18.900000000000002Z" style="fill: #fdae6b;"></path><path d="M190.05,46.000757497503685h18.900000000000002v36.13263092655717h-18.900000000000002Z" style="fill: #fd8d3c;"></path><path d="M190.05,15.638880280962667h18.900000000000002v17.2847157662776h-18.900000000000002Z" style="fill: #c6dbef;"></path><path d="M190.05,32.92359604724027h18.900000000000002v13.077161450263418h-18.900000000000002Z" style="fill: #e6550d;"></path><path d="M190.05,82.13338842406085h18.900000000000002v117.86661157593915h-18.900000000000002Z" style="fill: #fdae6b;"></path><path d="M190.05,6.776159487656173h18.900000000000002v8.862720793306494h-18.900000000000002Z" style="fill: #9ecae1;"></path><path d="M190.05,2.0727886237647226h18.900000000000002v4.70337086389145h-18.900000000000002Z" style="fill: #6baed6;"></path><path d="M190.05,-5.684341886080802e-14h18.900000000000002v2.0727886237647795h-18.900000000000002Z" style="fill: #3182bd;"></path><path d="M211.05,198.9447147798558h18.900000000000002v1.0552852201442136h-18.900000000000002Z" style="fill: #fdd0a2;"></path><path d="M211.05,2.063668874948746h18.900000000000002v3.8283402708565006h-18.900000000000002Z" style="fill: #6baed6;"></path><path d="M211.05,14.269801254616908h18.900000000000002v16.562115260596812h-18.900000000000002Z" style="fill: #c6dbef;"></path><path d="M211.05,87.10206953157062h18.900000000000002v111.84264524828517h-18.900000000000002Z" style="fill: #fdae6b;"></path><path d="M211.05,44.4978601160814h18.900000000000002v42.60420941548922h-18.900000000000002Z" style="fill: #fd8d3c;"></path><path d="M211.05,5.892009145805247h18.900000000000002v8.377792108811661h-18.900000000000002Z" style="fill: #9ecae1;"></path><path d="M211.05,30.83191651521372h18.900000000000002v13.665943600867678h-18.900000000000002Z" style="fill: #e6550d;"></path><path d="M211.05,5.684341886080802e-14h18.900000000000002v2.0636688749486893h-18.900000000000002Z" style="fill: #3182bd;"></path><path d="M232.05,5.684341886080802e-14h18.900000000000002v1.8447820851161794h-18.900000000000002Z" style="fill: #3182bd;"></path><path d="M232.05,5.334494862794372h18.900000000000002v7.594352917061684h-18.900000000000002Z" style="fill: #9ecae1;"></path><path d="M232.05,12.928847779856056h18.900000000000002v15.352686463911425h-18.900000000000002Z" style="fill: #c6dbef;"></path><path d="M232.05,1.8447820851162362h18.900000000000002v3.489712777678136h-18.900000000000002Z" style="fill: #6baed6;"></path><path d="M232.05,90.14322683133057h18.900000000000002v108.67816239206743h-18.900000000000002Z" style="fill: #fdae6b;"></path><path d="M232.05,28.28153424376748h18.900000000000002v13.390043301135051h-18.900000000000002Z" style="fill: #e6550d;"></path><path d="M232.05,198.821389223398h18.900000000000002v1.1786107766019995h-18.900000000000002Z" style="fill: #fdd0a2;"></path><path d="M232.05,41.67157754490253h18.900000000000002v48.47164928642803h-18.900000000000002Z" style="fill: #fd8d3c;"></path><path d="M253.05,4.892342973627223h18.900000000000002v7.3852295409181465h-18.900000000000002Z" style="fill: #9ecae1;"></path><path d="M253.05,12.27757251454537h18.900000000000002v14.927591625260135h-18.900000000000002Z" style="fill: #c6dbef;"></path><path d="M253.05,27.205164139805504h18.900000000000002v13.165159043614892h-18.900000000000002Z" style="fill: #e6550d;"></path><path d="M253.05,194.66174034908906h18.900000000000002v5.338259650910942h-18.900000000000002Z" style="fill: #fdd0a2;"></path><path d="M253.05,40.370323183420396h18.900000000000002v53.31040047564446h-18.900000000000002Z" style="fill: #fd8d3c;"></path><path d="M253.05,93.68072365906485h18.900000000000002v100.9810166900242h-18.900000000000002Z" style="fill: #fdae6b;"></path><path d="M253.05,0h18.900000000000002v1.4778952732832238h-18.900000000000002Z" style="fill: #3182bd;"></path><path d="M253.05,1.4778952732832238h18.900000000000002v3.414447700343999h-18.900000000000002Z" style="fill: #6baed6;"></path><path d="M274.05,0h18.900000000000002v1.3054321564960105h-18.900000000000002Z" style="fill: #3182bd;"></path><path d="M274.05,26.54898293196169h18.900000000000002v11.503390226794465h-18.900000000000002Z" style="fill: #e6550d;"></path><path d="M274.05,38.052373158756154h18.900000000000002v57.71958537915985h-18.900000000000002Z" style="fill: #fd8d3c;"></path><path d="M274.05,11.799547969760738h18.900000000000002v14.74943496220095h-18.900000000000002Z" style="fill: #c6dbef;"></path><path d="M274.05,95.771958537916h18.900000000000002v95.74468085106382h-18.900000000000002Z" style="fill: #fdae6b;"></path><path d="M274.05,191.51663938897983h18.900000000000002v8.483360611020174h-18.900000000000002Z" style="fill: #fdd0a2;"></path><path d="M274.05,4.74631751227497h18.900000000000002v7.053230457485768h-18.900000000000002Z" style="fill: #9ecae1;"></path><path d="M274.05,1.3054321564960105h18.900000000000002v3.44088535577896h-18.900000000000002Z" style="fill: #6baed6;"></path><path d="M295.05,1.055766533776648h18.900000000000002v2.9687524621420778h-18.900000000000002Z" style="fill: #6baed6;"></path><path d="M295.05,194.15704133247192h18.900000000000002v5.84295866752808h-18.900000000000002Z" style="fill: #fdd0a2;"></path><path d="M295.05,27.982540457919015h18.900000000000002v8.644679409401022h-18.900000000000002Z" style="fill: #e6550d;"></path><path d="M295.05,4.024518995918726h18.900000000000002v7.563700540489464h-18.900000000000002Z" style="fill: #9ecae1;"></path><path d="M295.05,36.627219867320036h18.900000000000002v55.84217078205515h-18.900000000000002Z" style="fill: #fd8d3c;"></path><path d="M295.05,11.58821953640819h18.900000000000002v16.394320921510825h-18.900000000000002Z" style="fill: #c6dbef;"></path><path d="M295.05,0h18.900000000000002v1.055766533776648h-18.900000000000002Z" style="fill: #3182bd;"></path><path d="M295.05,92.46939064937519h18.900000000000002v101.68765068309673h-18.900000000000002Z" style="fill: #fdae6b;"></path><path d="M316.05,185.94170531981905h18.900000000000002v14.05829468018095h-18.900000000000002Z" style="fill: #fdd0a2;"></path><path d="M316.05,27.77873217660195h18.900000000000002v64.64238676057951h-18.900000000000002Z" style="fill: #fd8d3c;"></path><path d="M316.05,-5.684341886080802e-14h18.900000000000002v0.9591708183015726h-18.900000000000002Z" style="fill: #3182bd;"></path><path d="M316.05,8.810055546011569h18.900000000000002v12.268796884842232h-18.900000000000002Z" style="fill: #c6dbef;"></path><path d="M316.05,3.020672278531748h18.900000000000002v5.7893832674798205h-18.900000000000002Z" style="fill: #9ecae1;"></path><path d="M316.05,21.0788524308538h18.900000000000002v6.699879745748149h-18.900000000000002Z" style="fill: #e6550d;"></path><path d="M316.05,0.9591708183015157h18.900000000000002v2.0615014602302324h-18.900000000000002Z" style="fill: #6baed6;"></path><path d="M316.05,92.42111893718146h18.900000000000002v93.52058638263759h-18.900000000000002Z" style="fill: #fdae6b;"></path><path d="M337.05,0h18.900000000000002v0.7823027845685999h-18.900000000000002Z" style="fill: #3182bd;"></path><path d="M337.05,2.2705861308210444h18.900000000000002v4.436229205175607h-18.900000000000002Z" style="fill: #9ecae1;"></path><path d="M337.05,19.428775863097h18.900000000000002v3.8900482976566764h-18.900000000000002Z" style="fill: #e6550d;"></path><path d="M337.05,82.92409516427163h18.900000000000002v90.11746467115857h-18.900000000000002Z" style="fill: #fdae6b;"></path><path d="M337.05,0.7823027845685999h18.900000000000002v1.4882833462524445h-18.900000000000002Z" style="fill: #6baed6;"></path><path d="M337.05,6.706815335996652h18.900000000000002v12.72196052710035h-18.900000000000002Z" style="fill: #c6dbef;"></path><path d="M337.05,23.318824160753678h18.900000000000002v59.605271003517956h-18.900000000000002Z" style="fill: #fd8d3c;"></path><path d="M337.05,173.0415598354302h18.900000000000002v26.958440164569794h-18.900000000000002Z" style="fill: #fdd0a2;"></path><path d="M358.05,76.56344396156922h18.900000000000002v90.53651121548145h-18.900000000000002Z" style="fill: #fdae6b;"></path><path d="M358.05,20.949856761444522h18.900000000000002v55.6135872001247h-18.900000000000002Z" style="fill: #fd8d3c;"></path><path d="M358.05,0.6236236431313955h18.900000000000002v1.1731919786408866h-18.900000000000002Z" style="fill: #6baed6;"></path><path d="M358.05,18.767174010484723h18.900000000000002v2.182682750959799h-18.900000000000002Z" style="fill: #e6550d;"></path><path d="M358.05,5.684341886080802e-14h18.900000000000002v0.6236236431313387h-18.900000000000002Z" style="fill: #3182bd;"></path><path d="M358.05,167.09995517705067h18.900000000000002v32.900044822949326h-18.900000000000002Z" style="fill: #fdd0a2;"></path><path d="M358.05,5.236489778418758h18.900000000000002v13.530684232065965h-18.900000000000002Z" style="fill: #c6dbef;"></path><path d="M358.05,1.7968156217722822h18.900000000000002v3.4396741566464755h-18.900000000000002Z" style="fill: #9ecae1;"></path><path d="M379.05,0.536393999716779h18.900000000000002v0.8578972355719259h-18.900000000000002Z" style="fill: #6baed6;"></path><path d="M379.05,165.22934175127642h18.900000000000002v34.77065824872358h-18.900000000000002Z" style="fill: #fdd0a2;"></path><path d="M379.05,73.43433754508123h18.900000000000002v91.79500420619519h-18.900000000000002Z" style="fill: #fdae6b;"></path><path d="M379.05,4.14455984874354h18.900000000000002v15.355527606799882h-18.900000000000002Z" style="fill: #c6dbef;"></path><path d="M379.05,-5.684341886080802e-14h18.900000000000002v0.5363939997168359h-18.900000000000002Z" style="fill: #3182bd;"></path><path d="M379.05,20.69614612571945h18.900000000000002v52.73819141936178h-18.900000000000002Z" style="fill: #fd8d3c;"></path><path d="M379.05,1.394291235288705h18.900000000000002v2.7502686134548355h-18.900000000000002Z" style="fill: #9ecae1;"></path><path d="M379.05,19.500087455543422h18.900000000000002v1.1960586701760292h-18.900000000000002Z" style="fill: #e6550d;"></path><path d="M400.05,70.97492870722434h18.900000000000002v92.97766159695817h-18.900000000000002Z" style="fill: #fdae6b;"></path><path d="M400.05,163.9525903041825h18.900000000000002v36.04740969581749h-18.900000000000002Z" style="fill: #fdd0a2;"></path><path d="M400.05,21.03582461977186h18.900000000000002v49.93910408745248h-18.900000000000002Z" style="fill: #fd8d3c;"></path><path d="M400.05,19.991682509505694h18.900000000000002v1.044142110266165h-18.900000000000002Z" style="fill: #e6550d;"></path><path d="M400.05,1.252079372623541h18.900000000000002v2.3081036121672867h-18.900000000000002Z" style="fill: #9ecae1;"></path><path d="M400.05,-5.684341886080802e-14h18.900000000000002v0.46934410646389324h-18.900000000000002Z" style="fill: #3182bd;"></path><path d="M400.05,0.4693441064638364h18.900000000000002v0.7827352661597047h-18.900000000000002Z" style="fill: #6baed6;"></path><path d="M400.05,3.5601829847908277h18.900000000000002v16.431499524714866h-18.900000000000002Z" style="fill: #c6dbef;"></path><path d="M421.05,0h18.900000000000002v0.43088892791053013h-18.900000000000002Z" style="fill: #3182bd;"></path><path d="M421.05,21.189199411073417h18.900000000000002v46.256399173341606h-18.900000000000002Z" style="fill: #fd8d3c;"></path><path d="M421.05,0.43088892791053013h18.900000000000002v0.7429119446733239h-18.900000000000002Z" style="fill: #6baed6;"></path><path d="M421.05,1.173800872583854h18.900000000000002v1.9275188091796736h-18.900000000000002Z" style="fill: #9ecae1;"></path><path d="M421.05,67.44559858441502h18.900000000000002v94.76719841151922h-18.900000000000002Z" style="fill: #fdae6b;"></path><path d="M421.05,19.866816149554893h18.900000000000002v1.3223832615185245h-18.900000000000002Z" style="fill: #e6550d;"></path><path d="M421.05,162.21279699593424h18.900000000000002v37.78720300406576h-18.900000000000002Z" style="fill: #fdd0a2;"></path><path d="M421.05,3.1013196817635276h18.900000000000002v16.765496467791365h-18.900000000000002Z" style="fill: #c6dbef;"></path><path d="M442.05,18.594262176195826h18.900000000000002v38.65750007252055h-18.900000000000002Z" style="fill: #fd8d3c;"></path><path d="M442.05,0.9816378034983302h18.900000000000002v1.4968236010791145h-18.900000000000002Z" style="fill: #9ecae1;"></path><path d="M442.05,147.98596002668754h18.900000000000002v52.014039973312464h-18.900000000000002Z" style="fill: #fdd0a2;"></path><path d="M442.05,0.3666637658456864h18.900000000000002v0.6149740376526438h-18.900000000000002Z" style="fill: #6baed6;"></path><path d="M442.05,2.4784614045774447h18.900000000000002v15.072665564354736h-18.900000000000002Z" style="fill: #c6dbef;"></path><path d="M442.05,17.55112696893218h18.900000000000002v1.0431352072636457h-18.900000000000002Z" style="fill: #e6550d;"></path><path d="M442.05,-5.684341886080802e-14h18.900000000000002v0.36666376584574323h-18.900000000000002Z" style="fill: #3182bd;"></path><path d="M442.05,57.251762248716375h18.900000000000002v90.73419777797116h-18.900000000000002Z" style="fill: #fdae6b;"></path><path d="M463.05,2.048033233805029h18.900000000000002v13.794106192392547h-18.900000000000002Z" style="fill: #c6dbef;"></path><path d="M463.05,0.8516162534077694h18.900000000000002v1.1964169803972595h-18.900000000000002Z" style="fill: #9ecae1;"></path><path d="M463.05,2.842170943040401e-14h18.900000000000002v0.31987537323121273h-18.900000000000002Z" style="fill: #3182bd;"></path><path d="M463.05,0.31987537323124116h18.900000000000002v0.5317408801765282h-18.900000000000002Z" style="fill: #6baed6;"></path><path d="M463.05,51.402310788004655h18.900000000000002v89.14033493444114h-18.900000000000002Z" style="fill: #fdae6b;"></path><path d="M463.05,140.5426457224458h18.900000000000002v59.4573542775542h-18.900000000000002Z" style="fill: #fdd0a2;"></path><path d="M463.05,15.842139426197576h18.900000000000002v1.0489419706607634h-18.900000000000002Z" style="fill: #e6550d;"></path><path d="M463.05,16.89108139685834h18.900000000000002v34.511229391146315h-18.900000000000002Z" style="fill: #fd8d3c;"></path><path d="M484.05,14.233410256289773h18.900000000000002v30.848768841032694h-18.900000000000002Z" style="fill: #fd8d3c;"></path><path d="M484.05,146.7342210023171h18.900000000000002v49.769936127312974h-18.900000000000002Z" style="fill: #fdd0a2;"></path><path d="M484.05,1.6863517368765315h18.900000000000002v11.595783180662437h-18.900000000000002Z" style="fill: #c6dbef;"></path><path d="M484.05,0.7313164165496175h18.900000000000002v0.955035320326914h-18.900000000000002Z" style="fill: #9ecae1;"></path><path d="M484.05,0.28857858596501273h18.900000000000002v0.4427378305846048h-18.900000000000002Z" style="fill: #6baed6;"></path><path d="M484.05,13.282134917538968h18.900000000000002v0.9512753387508042h-18.900000000000002Z" style="fill: #e6550d;"></path><path d="M484.05,45.08217909732247h18.900000000000002v101.65204190499463h-18.900000000000002Z" style="fill: #fdae6b;"></path><path d="M484.05,196.50415712963007h18.900000000000002v3.495842870369927h-18.900000000000002Z" style="fill: #31a354;"></path><path d="M484.05,5.684341886080802e-14h18.900000000000002v0.2885785859649559h-18.900000000000002Z" style="fill: #3182bd;"></path><path d="M505.05,11.511126170074647h18.900000000000002v1.2499846915656576h-18.900000000000002Z" style="fill: #e6550d;"></path><path d="M505.05,41.827541302155794h18.900000000000002v96.37455452456089h-18.900000000000002Z" style="fill: #fdae6b;"></path><path d="M505.05,194.1387066618224h18.900000000000002v5.861293338177603h-18.900000000000002Z" style="fill: #31a354;"></path><path d="M505.05,12.761110861640304h18.900000000000002v29.06643044051549h-18.900000000000002Z" style="fill: #fd8d3c;"></path><path d="M505.05,0h18.900000000000002v0.2514665480092617h-18.900000000000002Z" style="fill: #3182bd;"></path><path d="M505.05,138.2020958267167h18.900000000000002v55.93661083510571h-18.900000000000002Z" style="fill: #fdd0a2;"></path><path d="M505.05,0.6907165571943494h18.900000000000002v1.0319925866355106h-18.900000000000002Z" style="fill: #9ecae1;"></path><path d="M505.05,0.2514665480092617h18.900000000000002v0.4392500091850877h-18.900000000000002Z" style="fill: #6baed6;"></path><path d="M505.05,1.72270914382986h18.900000000000002v9.788417026244787h-18.900000000000002Z" style="fill: #c6dbef;"></path><path d="M526.05,0.5722564551327594h18.900000000000002v1.2628857556798891h-18.900000000000002Z" style="fill: #9ecae1;"></path><path d="M526.05,36.47844415960731h18.900000000000002v83.7949027055094h-18.900000000000002Z" style="fill: #fdae6b;"></path><path d="M526.05,0.221495201542524h18.900000000000002v0.35076125359023536h-18.900000000000002Z" style="fill: #6baed6;"></path><path d="M526.05,120.27334686511671h18.900000000000002v68.12829292558848h-18.900000000000002Z" style="fill: #fdd0a2;"></path><path d="M526.05,10.922255184258631h18.900000000000002v25.556188975348675h-18.900000000000002Z" style="fill: #fd8d3c;"></path><path d="M526.05,188.4016397907052h18.900000000000002v11.59836020929481h-18.900000000000002Z" style="fill: #31a354;"></path><path d="M526.05,5.684341886080802e-14h18.900000000000002v0.22149520154246716h-18.900000000000002Z" style="fill: #3182bd;"></path><path d="M526.05,8.434973003002938h18.900000000000002v2.4872821812556936h-18.900000000000002Z" style="fill: #e6550d;"></path><path d="M526.05,1.8351422108126485h18.900000000000002v6.599830792190289h-18.900000000000002Z" style="fill: #c6dbef;"></path><path d="M547.05,30.123726801224763h18.900000000000002v75.88702118352809h-18.900000000000002Z" style="fill: #fdae6b;"></path><path d="M547.05,2.842170943040401e-14h18.900000000000002v0.18683996750604592h-18.900000000000002Z" style="fill: #3182bd;"></path><path d="M547.05,9.485721427232392h18.900000000000002v20.63800537399237h-18.900000000000002Z" style="fill: #fd8d3c;"></path><path d="M547.05,6.746859963756776h18.900000000000002v2.738861463475615h-18.900000000000002Z" style="fill: #e6550d;"></path><path d="M547.05,1.9040179966256403h18.900000000000002v4.842841967131136h-18.900000000000002Z" style="fill: #c6dbef;"></path><path d="M547.05,182.83259388864587h18.900000000000002v17.167406111354126h-18.900000000000002Z" style="fill: #31a354;"></path><path d="M547.05,0.18683996750607434h18.900000000000002v0.29494469786914124h-18.900000000000002Z" style="fill: #6baed6;"></path><path d="M547.05,106.01074798475285h18.900000000000002v76.82184590389302h-18.900000000000002Z" style="fill: #fdd0a2;"></path><path d="M547.05,0.4817846653752156h18.900000000000002v1.4222333312504247h-18.900000000000002Z" style="fill: #9ecae1;"></path><path d="M568.05,92.22905129921499h18.900000000000002v84.49074202132074h-18.900000000000002Z" style="fill: #fdd0a2;"></path><path d="M568.05,2.842170943040401e-14h18.900000000000002v0.1654099566835896h-18.900000000000002Z" style="fill: #3182bd;"></path><path d="M568.05,5.320225931191658h18.900000000000002v2.14424412075482h-18.900000000000002Z" style="fill: #e6550d;"></path><path d="M568.05,0.16540995668361802h18.900000000000002v0.255583277551267h-18.900000000000002Z" style="fill: #6baed6;"></path><path d="M568.05,1.5749904571178774h18.900000000000002v3.7452354740737803h-18.900000000000002Z" style="fill: #c6dbef;"></path><path d="M568.05,7.464470051946478h18.900000000000002v16.56367730121761h-18.900000000000002Z" style="fill: #fd8d3c;"></path><path d="M568.05,24.028147353164087h18.900000000000002v68.2009039460509h-18.900000000000002Z" style="fill: #fdae6b;"></path><path d="M568.05,0.420993234234885h18.900000000000002v1.1539972228829924h-18.900000000000002Z" style="fill: #9ecae1;"></path><path d="M568.05,176.71979332053573h18.900000000000002v23.28020667946427h-18.900000000000002Z" style="fill: #31a354;"></path><path d="M589.05,4.264893259251892h18.900000000000002v1.9311383627243686h-18.900000000000002Z" style="fill: #e6550d;"></path><path d="M589.05,19.383854603328018h18.900000000000002v63.77303795489745h-18.900000000000002Z" style="fill: #fdae6b;"></path><path d="M589.05,0h18.900000000000002v0.14162628659664733h-18.900000000000002Z" style="fill: #3182bd;"></path><path d="M589.05,0.3552498827675379h18.900000000000002v0.9378596905063148h-18.900000000000002Z" style="fill: #9ecae1;"></path><path d="M589.05,1.2931095732738527h18.900000000000002v2.971783685978039h-18.900000000000002Z" style="fill: #c6dbef;"></path><path d="M589.05,0.14162628659664733h18.900000000000002v0.21362359617089055h-18.900000000000002Z" style="fill: #6baed6;"></path><path d="M589.05,6.19603162197626h18.900000000000002v13.187822981351758h-18.900000000000002Z" style="fill: #fd8d3c;"></path><path d="M589.05,83.15689255822546h18.900000000000002v86.36456216636115h-18.900000000000002Z" style="fill: #fdd0a2;"></path><path d="M589.05,169.52145472458662h18.900000000000002v30.47854527541338h-18.900000000000002Z" style="fill: #31a354;"></path><path d="M610.05,162.2608215712303h18.900000000000002v37.73917842876969h-18.900000000000002Z" style="fill: #31a354;"></path><path d="M610.05,-5.684341886080802e-14h18.900000000000002v0.12126363964156894h-18.900000000000002Z" style="fill: #3182bd;"></path><path d="M610.05,71.45409607222638h18.900000000000002v90.80672549900393h-18.900000000000002Z" style="fill: #fdd0a2;"></path><path d="M610.05,0.1212636396415121h18.900000000000002v0.1800825479062098h-18.900000000000002Z" style="fill: #6baed6;"></path><path d="M610.05,16.887875448947398h18.900000000000002v54.56622062327898h-18.900000000000002Z" style="fill: #fdae6b;"></path><path d="M610.05,0.3013461875477219h18.900000000000002v0.7602142458589753h-18.900000000000002Z" style="fill: #9ecae1;"></path><path d="M610.05,5.627277470142332h18.900000000000002v11.260597978805066h-18.900000000000002Z" style="fill: #fd8d3c;"></path><path d="M610.05,1.0615604334066973h18.900000000000002v2.8825293742030738h-18.900000000000002Z" style="fill: #c6dbef;"></path><path d="M610.05,3.944089807609771h18.900000000000002v1.6831876625325606h-18.900000000000002Z" style="fill: #e6550d;"></path><path d="M631.05,14.77784766402354h18.900000000000002v46.253810805330176h-18.900000000000002Z" style="fill: #fdae6b;"></path><path d="M631.05,0.3217058659764973h18.900000000000002v0.7255567126884728h-18.900000000000002Z" style="fill: #9ecae1;"></path><path d="M631.05,61.031658469353715h18.900000000000002v90.43096900144013h-18.900000000000002Z" style="fill: #fdd0a2;"></path><path d="M631.05,0.10311085447963819h18.900000000000002v0.21859501149685912h-18.900000000000002Z" style="fill: #6baed6;"></path><path d="M631.05,5.666972562201579h18.900000000000002v9.11087510182196h-18.900000000000002Z" style="fill: #fd8d3c;"></path><path d="M631.05,4.255041261526884h18.900000000000002v1.411931300674695h-18.900000000000002Z" style="fill: #e6550d;"></path><path d="M631.05,1.04726257866497h18.900000000000002v3.207778682861914h-18.900000000000002Z" style="fill: #c6dbef;"></path><path d="M631.05,0h18.900000000000002v0.10311085447963819h-18.900000000000002Z" style="fill: #3182bd;"></path><path d="M631.05,151.46262747079385h18.900000000000002v48.53737252920615h-18.900000000000002Z" style="fill: #31a354;"></path><path d="M652.05,13.00151303247813h18.900000000000002v40.21878068073252h-18.900000000000002Z" style="fill: #fdae6b;"></path><path d="M652.05,0.9497910958552609h18.900000000000002v3.5872517841602587h-18.900000000000002Z" style="fill: #c6dbef;"></path><path d="M652.05,143.70990867506197h18.900000000000002v56.29009132493803h-18.900000000000002Z" style="fill: #31a354;"></path><path d="M652.05,0.08805232656263229h18.900000000000002v0.19518265721373496h-18.900000000000002Z" style="fill: #6baed6;"></path><path d="M652.05,5.82818349517845h18.900000000000002v7.173329537299679h-18.900000000000002Z" style="fill: #fd8d3c;"></path><path d="M652.05,4.53704288001552h18.900000000000002v1.2911406151629308h-18.900000000000002Z" style="fill: #e6550d;"></path><path d="M652.05,5.684341886080802e-14h18.900000000000002v0.08805232656257544h-18.900000000000002Z" style="fill: #3182bd;"></path><path d="M652.05,0.28323498377636724h18.900000000000002v0.6665561120788936h-18.900000000000002Z" style="fill: #9ecae1;"></path><path d="M652.05,53.22029371321065h18.900000000000002v90.48961496185132h-18.900000000000002Z" style="fill: #fdd0a2;"></path><path d="M673.05,6.707337949959339h18.900000000000002v5.3403567592654895h-18.900000000000002Z" style="fill: #fd8d3c;"></path><path d="M673.05,47.138786633003576h18.900000000000002v92.43709413783179h-18.900000000000002Z" style="fill: #fdd0a2;"></path><path d="M673.05,12.047694709224828h18.900000000000002v35.09109192377875h-18.900000000000002Z" style="fill: #fdae6b;"></path><path d="M673.05,0.25285347813019143h18.900000000000002v0.5663207790017566h-18.900000000000002Z" style="fill: #9ecae1;"></path><path d="M673.05,0.819174257131948h18.900000000000002v4.7009950557887805h-18.900000000000002Z" style="fill: #c6dbef;"></path><path d="M673.05,0.07583068200693788h18.900000000000002v0.17702279612325356h-18.900000000000002Z" style="fill: #6baed6;"></path><path d="M673.05,139.57588077083537h18.900000000000002v60.42411922916463h-18.900000000000002Z" style="fill: #31a354;"></path><path d="M673.05,0h18.900000000000002v0.07583068200693788h-18.900000000000002Z" style="fill: #3182bd;"></path><path d="M673.05,5.5201693129207285h18.900000000000002v1.18716863703861h-18.900000000000002Z" style="fill: #e6550d;"></path><path d="M694.05,40.19227585175531h18.900000000000002v95.13616869001396h-18.900000000000002Z" style="fill: #fdd0a2;"></path><path d="M694.05,6.8168198642318885h18.900000000000002v3.413964567833318h-18.900000000000002Z" style="fill: #fd8d3c;"></path><path d="M694.05,5.526435259118415h18.900000000000002v1.2903846051134735h-18.900000000000002Z" style="fill: #e6550d;"></path><path d="M694.05,0.9784704455992994h18.900000000000002v4.5479648135191155h-18.900000000000002Z" style="fill: #c6dbef;"></path><path d="M694.05,10.230784432065207h18.900000000000002v29.961491419690105h-18.900000000000002Z" style="fill: #fdae6b;"></path><path d="M694.05,135.32844454176927h18.900000000000002v64.67155545823073h-18.900000000000002Z" style="fill: #31a354;"></path><path d="M694.05,0.06387831074985684h18.900000000000002v0.18180749982641942h-18.900000000000002Z" style="fill: #6baed6;"></path><path d="M694.05,0.24568581057627625h18.900000000000002v0.7327846350230232h-18.900000000000002Z" style="fill: #9ecae1;"></path><path d="M694.05,5.684341886080802e-14h18.900000000000002v0.0638783107498h-18.900000000000002Z" style="fill: #3182bd;"></path><path d="M715.05,5.684341886080802e-14h18.900000000000002v0.05678316711436082h-18.900000000000002Z" style="fill: #3182bd;"></path><path d="M715.05,0.21839679659382227h18.900000000000002v0.69184306955745h-18.900000000000002Z" style="fill: #9ecae1;"></path><path d="M715.05,36.73643019990905h18.900000000000002v97.38730962683584h-18.900000000000002Z" style="fill: #fdd0a2;"></path><path d="M715.05,6.611725629054064h18.900000000000002v3.311655077393169h-18.900000000000002Z" style="fill: #fd8d3c;"></path><path d="M715.05,0.056783167114417665h18.900000000000002v0.1616136294794046h-18.900000000000002Z" style="fill: #6baed6;"></path><path d="M715.05,134.1237398267449h18.900000000000002v65.8762601732551h-18.900000000000002Z" style="fill: #31a354;"></path><path d="M715.05,9.923380706447233h18.900000000000002v26.81304949346182h-18.900000000000002Z" style="fill: #fdae6b;"></path><path d="M715.05,0.9102398661512723h18.900000000000002v4.368315752391254h-18.900000000000002Z" style="fill: #c6dbef;"></path><path d="M715.05,5.278555618542526h18.900000000000002v1.3331700105115374h-18.900000000000002Z" style="fill: #e6550d;"></path><path d="M736.05,5.15098453245443h18.900000000000002v1.3132821754132635h-18.900000000000002Z" style="fill: #e6550d;"></path><path d="M736.05,0.8303720107809625h18.900000000000002v4.320612521673468h-18.900000000000002Z" style="fill: #c6dbef;"></path><path d="M736.05,126.19869186795077h18.900000000000002v73.80130813204923h-18.900000000000002Z" style="fill: #31a354;"></path><path d="M736.05,34.191687696348566h18.900000000000002v92.0070041716022h-18.900000000000002Z" style="fill: #fdd0a2;"></path><path d="M736.05,9.4350311582634h18.900000000000002v24.756656538085167h-18.900000000000002Z" style="fill: #fdae6b;"></path><path d="M736.05,0.05132959090832401h18.900000000000002v0.1460919125851774h-18.900000000000002Z" style="fill: #6baed6;"></path><path d="M736.05,6.464266707867694h18.900000000000002v2.9707644503957056h-18.900000000000002Z" style="fill: #fd8d3c;"></path><path d="M736.05,0.1974215034935014h18.900000000000002v0.632950507287461h-18.900000000000002Z" style="fill: #9ecae1;"></path><path d="M736.05,2.842170943040401e-14h18.900000000000002v0.051329590908295586h-18.900000000000002Z" style="fill: #3182bd;"></path><path d="M757.05,2.842170943040401e-14h18.900000000000002v0.046596652209757394h-18.900000000000002Z" style="fill: #3182bd;"></path><path d="M757.05,120.81109343174214h18.900000000000002v79.18890656825786h-18.900000000000002Z" style="fill: #31a354;"></path><path d="M757.05,8.933310684347447h18.900000000000002v23.009395692848557h-18.900000000000002Z" style="fill: #fdae6b;"></path><path d="M757.05,0.046596652209785816h18.900000000000002v0.1326212409046832h-18.900000000000002Z" style="fill: #6baed6;"></path><path d="M757.05,0.179217893114469h18.900000000000002v0.5787958739365706h-18.900000000000002Z" style="fill: #9ecae1;"></path><path d="M757.05,4.91088195462828h18.900000000000002v1.3354070661719106h-18.900000000000002Z" style="fill: #e6550d;"></path><path d="M757.05,31.942706377196004h18.900000000000002v88.86838705454613h-18.900000000000002Z" style="fill: #fdd0a2;"></path><path d="M757.05,0.7580137670510396h18.900000000000002v4.152868187577241h-18.900000000000002Z" style="fill: #c6dbef;"></path><path d="M757.05,6.246289020800191h18.900000000000002v2.687021663547256h-18.900000000000002Z" style="fill: #fd8d3c;"></path><path d="M778.05,0h18.900000000000002v0.04184173608217634h-18.900000000000002Z" style="fill: #3182bd;"></path><path d="M778.05,8.577415957934363h18.900000000000002v21.02792131234719h-18.900000000000002Z" style="fill: #fdae6b;"></path><path d="M778.05,0.04184173608217634h18.900000000000002v0.11950783483013083h-18.900000000000002Z" style="fill: #6baed6;"></path><path d="M778.05,29.605337270281552h18.900000000000002v91.85464544726224h-18.900000000000002Z" style="fill: #fdd0a2;"></path><path d="M778.05,121.4599827175438h18.900000000000002v78.5400172824562h-18.900000000000002Z" style="fill: #31a354;"></path><path d="M778.05,0.6794034403982607h18.900000000000002v4.240708930551818h-18.900000000000002Z" style="fill: #c6dbef;"></path><path d="M778.05,0.16134957091230717h18.900000000000002v0.5180538694859536h-18.900000000000002Z" style="fill: #9ecae1;"></path><path d="M778.05,4.920112370950079h18.900000000000002v1.217328636050354h-18.900000000000002Z" style="fill: #e6550d;"></path><path d="M778.05,6.137441007000433h18.900000000000002v2.43997495093393h-18.900000000000002Z" style="fill: #fd8d3c;"></path><path d="M799.05,0.1415450581041h18.900000000000002v0.4482666211903563h-18.900000000000002Z" style="fill: #9ecae1;"></path><path d="M799.05,5.68908811849829h18.900000000000002v2.369235266889177h-18.900000000000002Z" style="fill: #fd8d3c;"></path><path d="M799.05,0.037639778790179435h18.900000000000002v0.10390527931392057h-18.900000000000002Z" style="fill: #6baed6;"></path><path d="M799.05,8.058323385387467h18.900000000000002v19.21979681828148h-18.900000000000002Z" style="fill: #fdae6b;"></path><path d="M799.05,4.489609472068594h18.900000000000002v1.1994786464296965h-18.900000000000002Z" style="fill: #e6550d;"></path><path d="M799.05,27.278120203668948h18.900000000000002v95.6677710916754h-18.900000000000002Z" style="fill: #fdd0a2;"></path><path d="M799.05,0h18.900000000000002v0.037639778790179435h-18.900000000000002Z" style="fill: #3182bd;"></path><path d="M799.05,0.5898116792944563h18.900000000000002v3.8997977927741374h-18.900000000000002Z" style="fill: #c6dbef;"></path><path d="M799.05,122.94589129534435h18.900000000000002v77.05410870465565h-18.900000000000002Z" style="fill: #31a354;"></path></g><g class="mark-group role-legend"><g transform="translate(837,0)"><path class="background" d="M0,0h41v147h-41Z" style="pointer-events: none; fill: none;"></path><g><g class="mark-group role-legend-entry"><g transform="translate(0,16)"><path class="background" d="M0,0h0v0h0Z" style="pointer-events: none; fill: none;"></path><g><g class="mark-symbol role-legend-symbol" style="pointer-events: none;"><path transform="translate(5,5)" d="M-5,-5h10v10h-10Z" style="fill: #3182bd; stroke-width: 1.5; opacity: 1;"></path><path transform="translate(5,20)" d="M-5,-5h10v10h-10Z" style="fill: #6baed6; stroke-width: 1.5; opacity: 1;"></path><path transform="translate(5,35)" d="M-5,-5h10v10h-10Z" style="fill: #9ecae1; stroke-width: 1.5; opacity: 1;"></path><path transform="translate(5,50)" d="M-5,-5h10v10h-10Z" style="fill: #c6dbef; stroke-width: 1.5; opacity: 1;"></path><path transform="translate(5,65)" d="M-5,-5h10v10h-10Z" style="fill: #e6550d; stroke-width: 1.5; opacity: 1;"></path><path transform="translate(5,80)" d="M-5,-5h10v10h-10Z" style="fill: #fd8d3c; stroke-width: 1.5; opacity: 1;"></path><path transform="translate(5,95)" d="M-5,-5h10v10h-10Z" style="fill: #fdae6b; stroke-width: 1.5; opacity: 1;"></path><path transform="translate(5,110)" d="M-5,-5h10v10h-10Z" style="fill: #fdd0a2; stroke-width: 1.5; opacity: 1;"></path><path transform="translate(5,125)" d="M-5,-5h10v10h-10Z" style="fill: #31a354; stroke-width: 1.5; opacity: 1;"></path></g><g class="mark-text role-legend-label" style="pointer-events: none;"><text text-anchor="start" transform="translate(18,8)" style="font: 10px sans-serif; fill: #000; opacity: 1;">0001</text><text text-anchor="start" transform="translate(18,23)" style="font: 10px sans-serif; fill: #000; opacity: 1;">0002</text><text text-anchor="start" transform="translate(18,38)" style="font: 10px sans-serif; fill: #000; opacity: 1;">0005</text><text text-anchor="start" transform="translate(18,53)" style="font: 10px sans-serif; fill: #000; opacity: 1;">0010</text><text text-anchor="start" transform="translate(18,68)" style="font: 10px sans-serif; fill: #000; opacity: 1;">0020</text><text text-anchor="start" transform="translate(18,83)" style="font: 10px sans-serif; fill: #000; opacity: 1;">0050</text><text text-anchor="start" transform="translate(18,98)" style="font: 10px sans-serif; fill: #000; opacity: 1;">0100</text><text text-anchor="start" transform="translate(18,113)" style="font: 10px sans-serif; fill: #000; opacity: 1;">0500</text><text text-anchor="start" transform="translate(18,128)" style="font: 10px sans-serif; fill: #000; opacity: 1;">1000</text></g></g></g></g><g class="mark-text role-legend-title" style="pointer-events: none;"><text text-anchor="start" transform="translate(0,9)" style="font: bold 11px sans-serif; fill: #000; opacity: 1;">denom</text></g></g></g></g><g class="mark-group role-axis"><g transform="translate(0.5,200.5)"><path class="background" d="M0,0h0v0h0Z" style="pointer-events: none; fill: none;"></path><g><g class="mark-rule role-axis-tick" style="pointer-events: none;"><line transform="translate(10,0)" x2="0" y2="5" style="fill: none; stroke: #888; stroke-width: 1; opacity: 1;"></line><line transform="translate(31,0)" x2="0" y2="5" style="fill: none; stroke: #888; stroke-width: 1; opacity: 1;"></line><line transform="translate(52,0)" x2="0" y2="5" style="fill: none; stroke: #888; stroke-width: 1; opacity: 1;"></line><line transform="translate(73,0)" x2="0" y2="5" style="fill: none; stroke: #888; stroke-width: 1; opacity: 1;"></line><line transform="translate(94,0)" x2="0" y2="5" style="fill: none; stroke: #888; stroke-width: 1; opacity: 1;"></line><line transform="translate(115,0)" x2="0" y2="5" style="fill: none; stroke: #888; stroke-width: 1; opacity: 1;"></line><line transform="translate(136,0)" x2="0" y2="5" style="fill: none; stroke: #888; stroke-width: 1; opacity: 1;"></line><line transform="translate(157,0)" x2="0" y2="5" style="fill: none; stroke: #888; stroke-width: 1; opacity: 1;"></line><line transform="translate(178,0)" x2="0" y2="5" style="fill: none; stroke: #888; stroke-width: 1; opacity: 1;"></line><line transform="translate(199,0)" x2="0" y2="5" style="fill: none; stroke: #888; stroke-width: 1; opacity: 1;"></line><line transform="translate(220,0)" x2="0" y2="5" style="fill: none; stroke: #888; stroke-width: 1; opacity: 1;"></line><line transform="translate(241,0)" x2="0" y2="5" style="fill: none; stroke: #888; stroke-width: 1; opacity: 1;"></line><line transform="translate(262,0)" x2="0" y2="5" style="fill: none; stroke: #888; stroke-width: 1; opacity: 1;"></line><line transform="translate(283,0)" x2="0" y2="5" style="fill: none; stroke: #888; stroke-width: 1; opacity: 1;"></line><line transform="translate(304,0)" x2="0" y2="5" style="fill: none; stroke: #888; stroke-width: 1; opacity: 1;"></line><line transform="translate(325,0)" x2="0" y2="5" style="fill: none; stroke: #888; stroke-width: 1; opacity: 1;"></line><line transform="translate(346,0)" x2="0" y2="5" style="fill: none; stroke: #888; stroke-width: 1; opacity: 1;"></line><line transform="translate(367,0)" x2="0" y2="5" style="fill: none; stroke: #888; stroke-width: 1; opacity: 1;"></line><line transform="translate(388,0)" x2="0" y2="5" style="fill: none; stroke: #888; stroke-width: 1; opacity: 1;"></line><line transform="translate(409,0)" x2="0" y2="5" style="fill: none; stroke: #888; stroke-width: 1; opacity: 1;"></line><line transform="translate(430,0)" x2="0" y2="5" style="fill: none; stroke: #888; stroke-width: 1; opacity: 1;"></line><line transform="translate(451,0)" x2="0" y2="5" style="fill: none; stroke: #888; stroke-width: 1; opacity: 1;"></line><line transform="translate(472,0)" x2="0" y2="5" style="fill: none; stroke: #888; stroke-width: 1; opacity: 1;"></line><line transform="translate(493,0)" x2="0" y2="5" style="fill: none; stroke: #888; stroke-width: 1; opacity: 1;"></line><line transform="translate(514,0)" x2="0" y2="5" style="fill: none; stroke: #888; stroke-width: 1; opacity: 1;"></line><line transform="translate(535,0)" x2="0" y2="5" style="fill: none; stroke: #888; stroke-width: 1; opacity: 1;"></line><line transform="translate(556,0)" x2="0" y2="5" style="fill: none; stroke: #888; stroke-width: 1; opacity: 1;"></line><line transform="translate(577,0)" x2="0" y2="5" style="fill: none; stroke: #888; stroke-width: 1; opacity: 1;"></line><line transform="translate(598,0)" x2="0" y2="5" style="fill: none; stroke: #888; stroke-width: 1; opacity: 1;"></line><line transform="translate(619,0)" x2="0" y2="5" style="fill: none; stroke: #888; stroke-width: 1; opacity: 1;"></line><line transform="translate(640,0)" x2="0" y2="5" style="fill: none; stroke: #888; stroke-width: 1; opacity: 1;"></line><line transform="translate(661,0)" x2="0" y2="5" style="fill: none; stroke: #888; stroke-width: 1; opacity: 1;"></line><line transform="translate(682,0)" x2="0" y2="5" style="fill: none; stroke: #888; stroke-width: 1; opacity: 1;"></line><line transform="translate(703,0)" x2="0" y2="5" style="fill: none; stroke: #888; stroke-width: 1; opacity: 1;"></line><line transform="translate(724,0)" x2="0" y2="5" style="fill: none; stroke: #888; stroke-width: 1; opacity: 1;"></line><line transform="translate(745,0)" x2="0" y2="5" style="fill: none; stroke: #888; stroke-width: 1; opacity: 1;"></line><line transform="translate(766,0)" x2="0" y2="5" style="fill: none; stroke: #888; stroke-width: 1; opacity: 1;"></line><line transform="translate(787,0)" x2="0" y2="5" style="fill: none; stroke: #888; stroke-width: 1; opacity: 1;"></line><line transform="translate(808,0)" x2="0" y2="5" style="fill: none; stroke: #888; stroke-width: 1; opacity: 1;"></line></g><g class="mark-text role-axis-label" style="pointer-events: none;"><text text-anchor="end" transform="translate(9.500000000000012,7) rotate(270) translate(0,3)" style="font: 10px sans-serif; fill: #000; opacity: 1;">1977</text><text text-anchor="end" transform="translate(30.500000000000014,7) rotate(270) translate(0,3)" style="font: 10px sans-serif; fill: #000; opacity: 1;">1978</text><text text-anchor="end" transform="translate(51.500000000000014,7) rotate(270) translate(0,3)" style="font: 10px sans-serif; fill: #000; opacity: 1;">1979</text><text text-anchor="end" transform="translate(72.50000000000001,7) rotate(270) translate(0,3)" style="font: 10px sans-serif; fill: #000; opacity: 1;">1980</text><text text-anchor="end" transform="translate(93.50000000000001,7) rotate(270) translate(0,3)" style="font: 10px sans-serif; fill: #000; opacity: 1;">1981</text><text text-anchor="end" transform="translate(114.50000000000001,7) rotate(270) translate(0,3)" style="font: 10px sans-serif; fill: #000; opacity: 1;">1982</text><text text-anchor="end" transform="translate(135.5,7) rotate(270) translate(0,3)" style="font: 10px sans-serif; fill: #000; opacity: 1;">1983</text><text text-anchor="end" transform="translate(156.5,7) rotate(270) translate(0,3)" style="font: 10px sans-serif; fill: #000; opacity: 1;">1984</text><text text-anchor="end" transform="translate(177.5,7) rotate(270) translate(0,3)" style="font: 10px sans-serif; fill: #000; opacity: 1;">1985</text><text text-anchor="end" transform="translate(198.5,7) rotate(270) translate(0,3)" style="font: 10px sans-serif; fill: #000; opacity: 1;">1986</text><text text-anchor="end" transform="translate(219.5,7) rotate(270) translate(0,3)" style="font: 10px sans-serif; fill: #000; opacity: 1;">1987</text><text text-anchor="end" transform="translate(240.5,7) rotate(270) translate(0,3)" style="font: 10px sans-serif; fill: #000; opacity: 1;">1988</text><text text-anchor="end" transform="translate(261.5,7) rotate(270) translate(0,3)" style="font: 10px sans-serif; fill: #000; opacity: 1;">1989</text><text text-anchor="end" transform="translate(282.5,7) rotate(270) translate(0,3)" style="font: 10px sans-serif; fill: #000; opacity: 1;">1990</text><text text-anchor="end" transform="translate(303.5,7) rotate(270) translate(0,3)" style="font: 10px sans-serif; fill: #000; opacity: 1;">1991</text><text text-anchor="end" transform="translate(324.5,7) rotate(270) translate(0,3)" style="font: 10px sans-serif; fill: #000; opacity: 1;">1992</text><text text-anchor="end" transform="translate(345.5,7) rotate(270) translate(0,3)" style="font: 10px sans-serif; fill: #000; opacity: 1;">1993</text><text text-anchor="end" transform="translate(366.5,7) rotate(270) translate(0,3)" style="font: 10px sans-serif; fill: #000; opacity: 1;">1994</text><text text-anchor="end" transform="translate(387.5,7) rotate(270) translate(0,3)" style="font: 10px sans-serif; fill: #000; opacity: 1;">1995</text><text text-anchor="end" transform="translate(408.5,7) rotate(270) translate(0,3)" style="font: 10px sans-serif; fill: #000; opacity: 1;">1996</text><text text-anchor="end" transform="translate(429.5,7) rotate(270) translate(0,3)" style="font: 10px sans-serif; fill: #000; opacity: 1;">1997</text><text text-anchor="end" transform="translate(450.5,7) rotate(270) translate(0,3)" style="font: 10px sans-serif; fill: #000; opacity: 1;">1998</text><text text-anchor="end" transform="translate(471.5,7) rotate(270) translate(0,3)" style="font: 10px sans-serif; fill: #000; opacity: 1;">1999</text><text text-anchor="end" transform="translate(492.5,7) rotate(270) translate(0,3)" style="font: 10px sans-serif; fill: #000; opacity: 1;">2000</text><text text-anchor="end" transform="translate(513.5,7) rotate(270) translate(0,3)" style="font: 10px sans-serif; fill: #000; opacity: 1;">2001</text><text text-anchor="end" transform="translate(534.5,7) rotate(270) translate(0,3)" style="font: 10px sans-serif; fill: #000; opacity: 1;">2002</text><text text-anchor="end" transform="translate(555.5,7) rotate(270) translate(0,3)" style="font: 10px sans-serif; fill: #000; opacity: 1;">2003</text><text text-anchor="end" transform="translate(576.5,7) rotate(270) translate(0,3)" style="font: 10px sans-serif; fill: #000; opacity: 1;">2004</text><text text-anchor="end" transform="translate(597.5,7) rotate(270) translate(0,3)" style="font: 10px sans-serif; fill: #000; opacity: 1;">2005</text><text text-anchor="end" transform="translate(618.5,7) rotate(270) translate(0,3)" style="font: 10px sans-serif; fill: #000; opacity: 1;">2006</text><text text-anchor="end" transform="translate(639.5,7) rotate(270) translate(0,3)" style="font: 10px sans-serif; fill: #000; opacity: 1;">2007</text><text text-anchor="end" transform="translate(660.5,7) rotate(270) translate(0,3)" style="font: 10px sans-serif; fill: #000; opacity: 1;">2008</text><text text-anchor="end" transform="translate(681.5,7) rotate(270) translate(0,3)" style="font: 10px sans-serif; fill: #000; opacity: 1;">2009</text><text text-anchor="end" transform="translate(702.5,7) rotate(270) translate(0,3)" style="font: 10px sans-serif; fill: #000; opacity: 1;">2010</text><text text-anchor="end" transform="translate(723.5,7) rotate(270) translate(0,3)" style="font: 10px sans-serif; fill: #000; opacity: 1;">2011</text><text text-anchor="end" transform="translate(744.5,7) rotate(270) translate(0,3)" style="font: 10px sans-serif; fill: #000; opacity: 1;">2012</text><text text-anchor="end" transform="translate(765.5,7) rotate(270) translate(0,3)" style="font: 10px sans-serif; fill: #000; opacity: 1;">2013</text><text text-anchor="end" transform="translate(786.5,7) rotate(270) translate(0,3)" style="font: 10px sans-serif; fill: #000; opacity: 1;">2014</text><text text-anchor="end" transform="translate(807.5,7) rotate(270) translate(0,3)" style="font: 10px sans-serif; fill: #000; opacity: 1;">2015</text></g><g class="mark-rule role-axis-domain" style="pointer-events: none;"><line transform="translate(0,0)" x2="819" y2="0" style="fill: none; stroke: #888; stroke-width: 1; opacity: 1;"></line></g><g class="mark-text role-axis-title" style="pointer-events: none;"><text text-anchor="middle" transform="translate(409.5,43.24609375)" style="font: bold 11px sans-serif; fill: #000; opacity: 1;">year</text></g></g></g></g><g class="mark-group role-axis"><g transform="translate(0.5,0.5)"><path class="background" d="M0,0h0v0h0Z" style="pointer-events: none; fill: none;"></path><g><g class="mark-rule role-axis-tick" style="pointer-events: none;"><line transform="translate(0,200)" x2="-5" y2="0" style="fill: none; stroke: #888; stroke-width: 1; opacity: 1;"></line><line transform="translate(0,160)" x2="-5" y2="0" style="fill: none; stroke: #888; stroke-width: 1; opacity: 1;"></line><line transform="translate(0,120)" x2="-5" y2="0" style="fill: none; stroke: #888; stroke-width: 1; opacity: 1;"></line><line transform="translate(0,80)" x2="-5" y2="0" style="fill: none; stroke: #888; stroke-width: 1; opacity: 1;"></line><line transform="translate(0,40)" x2="-5" y2="0" style="fill: none; stroke: #888; stroke-width: 1; opacity: 1;"></line><line transform="translate(0,0)" x2="-5" y2="0" style="fill: none; stroke: #888; stroke-width: 1; opacity: 1;"></line></g><g class="mark-text role-axis-label" style="pointer-events: none;"><text text-anchor="end" transform="translate(-7,203)" style="font: 10px sans-serif; fill: #000; opacity: 1;">0.0</text><text text-anchor="end" transform="translate(-7,163)" style="font: 10px sans-serif; fill: #000; opacity: 1;">0.2</text><text text-anchor="end" transform="translate(-7,123)" style="font: 10px sans-serif; fill: #000; opacity: 1;">0.4</text><text text-anchor="end" transform="translate(-7,83)" style="font: 10px sans-serif; fill: #000; opacity: 1;">0.6</text><text text-anchor="end" transform="translate(-7,43)" style="font: 10px sans-serif; fill: #000; opacity: 1;">0.8</text><text text-anchor="end" transform="translate(-7,3)" style="font: 10px sans-serif; fill: #000; opacity: 1;">1.0</text></g><g class="mark-rule role-axis-domain" style="pointer-events: none;"><line transform="translate(0,200)" x2="0" y2="-200" style="fill: none; stroke: #888; stroke-width: 1; opacity: 1;"></line></g><g class="mark-text role-axis-title" style="pointer-events: none;"><text text-anchor="middle" transform="translate(-34,100) rotate(-90) translate(0,-2)" style="font: bold 11px sans-serif; fill: #000; opacity: 1;">money</text></g></g></g></g></g></g></g></g></svg>