<svg class="marks" width="318" height="294" viewBox="0 0 318 294" version="1.1" xmlns="http://www.w3.org/2000/svg" xmlns:xlink="http://www.w3.org/1999/xlink"><g transform="translate(53,5)"><g class="mark-group role-frame root"><g transform="translate(0,0)"><path class="background" d="M0.5,0.5h200v189h-200Z" style="fill: transparent; stroke: #ddd;"></path><g><g class="mark-group role-axis"><g transform="translate(0.5,189.5)"><path class="background" d="M0,0h0v0h0Z" style="pointer-events: none; fill: none;"></path><g><g class="mark-rule role-axis-grid" style="pointer-events: none;"><line transform="translate(16,0)" x2="0" y2="-189" style="fill: none; stroke: #ddd; stroke-width: 1; stroke-dasharray: ; opacity: 1;"></line><line transform="translate(68,0)" x2="0" y2="-189" style="fill: none; stroke: #ddd; stroke-width: 1; stroke-dasharray: ; opacity: 1;"></line><line transform="translate(121,0)" x2="0" y2="-189" style="fill: none; stroke: #ddd; stroke-width: 1; stroke-dasharray: ; opacity: 1;"></line><line transform="translate(174,0)" x2="0" y2="-189" style="fill: none; stroke: #ddd; stroke-width: 1; stroke-dasharray: ; opacity: 1;"></line></g></g></g></g><g class="mark-symbol role-mark marks"><path transform="translate(0,10.5)" d="M2.7690532292374135,0A2.7690532292374135,2.7690532292374135,0,1,1,-2.7690532292374135,0A2.7690532292374135,2.7690532292374135,0,1,1,2.7690532292374135,0" style="fill: #4c78a8; stroke-width: 2; opacity: 0.7;"></path><path transform="translate(0,178.5)" d="M0.0530941719769962,0A0.0530941719769962,0.0530941719769962,0,1,1,-0.0530941719769962,0A0.0530941719769962,0.0530941719769962,0,1,1,0.0530941719769962,0" style="fill: #9d755d; stroke-width: 2; opacity: 0.7;"></path><path transform="translate(0,31.5)" d="M1.4443176286616832,0A1.4443176286616832,1.4443176286616832,0,1,1,-1.4443176286616832,0A1.4443176286616832,1.4443176286616832,0,1,1,1.4443176286616832,0" style="fill: #f58518; stroke-width: 2; opacity: 0.7;"></path><path transform="translate(0,115.5)" d="M0.7489854661384604,0A0.7489854661384604,0.7489854661384604,0,1,1,-0.7489854661384604,0A0.7489854661384604,0.7489854661384604,0,1,1,0.7489854661384604,0" style="fill: #eeca3b; stroke-width: 2; opacity: 0.7;"></path><path transform="translate(0,94.5)" d="M0.9861804747526605,0A0.9861804747526605,0.9861804747526605,0,1,1,-0.9861804747526605,0A0.9861804747526605,0.9861804747526605,0,1,1,0.9861804747526605,0" style="fill: #54a24b; stroke-width: 2; opacity: 0.7;"></path><path transform="translate(0,136.5)" d="M1.1009841834044778,0A1.1009841834044778,1.1009841834044778,0,1,1,-1.1009841834044778,0A1.1009841834044778,1.1009841834044778,0,1,1,1.1009841834044778,0" style="fill: #b279a2; stroke-width: 2; opacity: 0.7;"></path><path transform="translate(0,73.5)" d="M2.2681840211299433,0A2.2681840211299433,2.2681840211299433,0,1,1,-2.2681840211299433,0A2.2681840211299433,2.2681840211299433,0,1,1,2.2681840211299433,0" style="fill: #72b7b2; stroke-width: 2; opacity: 0.7;"></path><path transform="translate(0,52.5)" d="M1.7958078449610744,0A1.7958078449610744,1.7958078449610744,0,1,1,-1.7958078449610744,0A1.7958078449610744,1.7958078449610744,0,1,1,1.7958078449610744,0" style="fill: #e45756; stroke-width: 2; opacity: 0.7;"></path><path transform="translate(5.259744938396138,73.5)" d="M2.3487795934559323,0A2.3487795934559323,2.3487795934559323,0,1,1,-2.3487795934559323,0A2.3487795934559323,2.3487795934559323,0,1,1,2.3487795934559323,0" style="fill: #72b7b2; stroke-width: 2; opacity: 0.7;"></path><path transform="translate(5.259744938396138,115.5)" d="M0.9010379771140505,0A0.9010379771140505,0.9010379771140505,0,1,1,-0.9010379771140505,0A0.9010379771140505,0.9010379771140505,0,1,1,0.9010379771140505,0" style="fill: #eeca3b; stroke-width: 2; opacity: 0.7;"></path><path transform="translate(5.259744938396138,52.5)" d="M1.802075954228101,0A1.802075954228101,1.802075954228101,0,1,1,-1.802075954228101,0A1.802075954228101,1.802075954228101,0,1,1,1.802075954228101,0" style="fill: #e45756; stroke-width: 2; opacity: 0.7;"></path><path transform="translate(5.259744938396138,94.5)" d="M1.0485258834143825,0A1.0485258834143825,1.0485258834143825,0,1,1,-1.0485258834143825,0A1.0485258834143825,1.0485258834143825,0,1,1,1.0485258834143825,0" style="fill: #54a24b; stroke-width: 2; opacity: 0.7;"></path><path transform="translate(5.259744938396138,10.5)" d="M2.6863762228478896,0A2.6863762228478896,2.6863762228478896,0,1,1,-2.6863762228478896,0A2.6863762228478896,2.6863762228478896,0,1,1,2.6863762228478896,0" style="fill: #4c78a8; stroke-width: 2; opacity: 0.7;"></path><path transform="translate(5.259744938396138,136.5)" d="M1.2303650757334466,0A1.2303650757334466,1.2303650757334466,0,1,1,-1.2303650757334466,0A1.2303650757334466,1.2303650757334466,0,1,1,1.2303650757334466,0" style="fill: #b279a2; stroke-width: 2; opacity: 0.7;"></path><path transform="translate(5.259744938396138,31.5)" d="M1.5660530818567033,0A1.5660530818567033,1.5660530818567033,0,1,1,-1.5660530818567033,0A1.5660530818567033,1.5660530818567033,0,1,1,1.5660530818567033,0" style="fill: #f58518; stroke-width: 2; opacity: 0.7;"></path><path transform="translate(10.519489876792276,136.5)" d="M1.2951060586933005,0A1.2951060586933005,1.2951060586933005,0,1,1,-1.2951060586933005,0A1.2951060586933005,1.2951060586933005,0,1,1,1.2951060586933005,0" style="fill: #b279a2; stroke-width: 2; opacity: 0.7;"></path><path transform="translate(10.519489876792276,94.5)" d="M1.1632350265543792,0A1.1632350265543792,1.1632350265543792,0,1,1,-1.1632350265543792,0A1.1632350265543792,1.1632350265543792,0,1,1,1.1632350265543792,0" style="fill: #54a24b; stroke-width: 2; opacity: 0.7;"></path><path transform="translate(10.519489876792276,31.5)" d="M1.740808843689353,0A1.740808843689353,1.740808843689353,0,1,1,-1.740808843689353,0A1.740808843689353,1.740808843689353,0,1,1,1.740808843689353,0" style="fill: #f58518; stroke-width: 2; opacity: 0.7;"></path><path transform="translate(10.519489876792276,52.5)" d="M1.8207508152290552,0A1.8207508152290552,1.8207508152290552,0,1,1,-1.8207508152290552,0A1.8207508152290552,1.8207508152290552,0,1,1,1.8207508152290552,0" style="fill: #e45756; stroke-width: 2; opacity: 0.7;"></path><path transform="translate(10.519489876792276,115.5)" d="M1.0578938821428976,0A1.0578938821428976,1.0578938821428976,0,1,1,-1.0578938821428976,0A1.0578938821428976,1.0578938821428976,0,1,1,1.0578938821428976,0" style="fill: #eeca3b; stroke-width: 2; opacity: 0.7;"></path><path transform="translate(10.519489876792276,73.5)" d="M2.4463683493885804,0A2.4463683493885804,2.4463683493885804,0,1,1,-2.4463683493885804,0A2.4463683493885804,2.4463683493885804,0,1,1,2.4463683493885804,0" style="fill: #72b7b2; stroke-width: 2; opacity: 0.7;"></path><path transform="translate(10.519489876792276,10.5)" d="M2.4561435115959527,0A2.4561435115959527,2.4561435115959527,0,1,1,-2.4561435115959527,0A2.4561435115959527,2.4561435115959527,0,1,1,2.4561435115959527,0" style="fill: #4c78a8; stroke-width: 2; opacity: 0.7;"></path><path transform="translate(15.779234815188413,52.5)" d="M1.8906297131289809,0A1.8906297131289809,1.8906297131289809,0,1,1,-1.8906297131289809,0A1.8906297131289809,1.8906297131289809,0,1,1,1.8906297131289809,0" style="fill: #e45756; stroke-width: 2; opacity: 0.7;"></path><path transform="translate(15.779234815188413,136.5)" d="M1.4452931894812315,0A1.4452931894812315,1.4452931894812315,0,1,1,-1.4452931894812315,0A1.4452931894812315,1.4452931894812315,0,1,1,1.4452931894812315,0" style="fill: #b279a2; stroke-width: 2; opacity: 0.7;"></path><path transform="translate(15.779234815188413,73.5)" d="M2.431342084599412,0A2.431342084599412,2.431342084599412,0,1,1,-2.431342084599412,0A2.431342084599412,2.431342084599412,0,1,1,2.431342084599412,0" style="fill: #72b7b2; stroke-width: 2; opacity: 0.7;"></path><path transform="translate(15.779234815188413,31.5)" d="M2.0528983636299825,0A2.0528983636299825,2.0528983636299825,0,1,1,-2.0528983636299825,0A2.0528983636299825,2.0528983636299825,0,1,1,2.0528983636299825,0" style="fill: #f58518; stroke-width: 2; opacity: 0.7;"></path><path transform="translate(15.779234815188413,10.5)" d="M2.4156389574396866,0A2.4156389574396866,2.4156389574396866,0,1,1,-2.4156389574396866,0A2.4156389574396866,2.4156389574396866,0,1,1,2.4156389574396866,0" style="fill: #4c78a8; stroke-width: 2; opacity: 0.7;"></path><path transform="translate(15.779234815188413,94.5)" d="M1.2394959251114754,0A1.2394959251114754,1.2394959251114754,0,1,1,-1.2394959251114754,0A1.2394959251114754,1.2394959251114754,0,1,1,1.2394959251114754,0" style="fill: #54a24b; stroke-width: 2; opacity: 0.7;"></path><path transform="translate(15.779234815188413,115.5)" d="M1.11497761151692,0A1.11497761151692,1.11497761151692,0,1,1,-1.11497761151692,0A1.11497761151692,1.11497761151692,0,1,1,1.11497761151692,0" style="fill: #eeca3b; stroke-width: 2; opacity: 0.7;"></path><path transform="translate(21.053390013689746,52.5)" d="M1.9752173752590427,0A1.9752173752590427,1.9752173752590427,0,1,1,-1.9752173752590427,0A1.9752173752590427,1.9752173752590427,0,1,1,1.9752173752590427,0" style="fill: #e45756; stroke-width: 2; opacity: 0.7;"></path><path transform="translate(21.053390013689746,10.5)" d="M2.444639263285371,0A2.444639263285371,2.444639263285371,0,1,1,-2.444639263285371,0A2.444639263285371,2.444639263285371,0,1,1,2.444639263285371,0" style="fill: #4c78a8; stroke-width: 2; opacity: 0.7;"></path><path transform="translate(21.053390013689746,115.5)" d="M1.2394959251114754,0A1.2394959251114754,1.2394959251114754,0,1,1,-1.2394959251114754,0A1.2394959251114754,1.2394959251114754,0,1,1,1.2394959251114754,0" style="fill: #eeca3b; stroke-width: 2; opacity: 0.7;"></path><path transform="translate(21.053390013689746,73.5)" d="M2.3690950331222242,0A2.3690950331222242,2.3690950331222242,0,1,1,-2.3690950331222242,0A2.3690950331222242,2.3690950331222242,0,1,1,2.3690950331222242,0" style="fill: #72b7b2; stroke-width: 2; opacity: 0.7;"></path><path transform="translate(21.053390013689746,136.5)" d="M1.4856884026179886,0A1.4856884026179886,1.4856884026179886,0,1,1,-1.4856884026179886,0A1.4856884026179886,1.4856884026179886,0,1,1,1.4856884026179886,0" style="fill: #b279a2; stroke-width: 2; opacity: 0.7;"></path><path transform="translate(21.053390013689746,31.5)" d="M2.3505791949919033,0A2.3505791949919033,2.3505791949919033,0,1,1,-2.3505791949919033,0A2.3505791949919033,2.3505791949919033,0,1,1,2.3505791949919033,0" style="fill: #f58518; stroke-width: 2; opacity: 0.7;"></path><path transform="translate(21.053390013689746,94.5)" d="M1.3081007592839204,0A1.3081007592839204,1.3081007592839204,0,1,1,-1.3081007592839204,0A1.3081007592839204,1.3081007592839204,0,1,1,1.3081007592839204,0" style="fill: #54a24b; stroke-width: 2; opacity: 0.7;"></path><path transform="translate(26.313134952085885,115.5)" d="M1.3037835832865352,0A1.3037835832865352,1.3037835832865352,0,1,1,-1.3037835832865352,0A1.3037835832865352,1.3037835832865352,0,1,1,1.3037835832865352,0" style="fill: #eeca3b; stroke-width: 2; opacity: 0.7;"></path><path transform="translate(26.313134952085885,136.5)" d="M1.660413591177977,0A1.660413591177977,1.660413591177977,0,1,1,-1.660413591177977,0A1.660413591177977,1.660413591177977,0,1,1,1.660413591177977,0" style="fill: #b279a2; stroke-width: 2; opacity: 0.7;"></path><path transform="translate(26.313134952085885,10.5)" d="M2.4039408792110173,0A2.4039408792110173,2.4039408792110173,0,1,1,-2.4039408792110173,0A2.4039408792110173,2.4039408792110173,0,1,1,2.4039408792110173,0" style="fill: #4c78a8; stroke-width: 2; opacity: 0.7;"></path><path transform="translate(26.313134952085885,73.5)" d="M2.251343153334312,0A2.251343153334312,2.251343153334312,0,1,1,-2.251343153334312,0A2.251343153334312,2.251343153334312,0,1,1,2.251343153334312,0" style="fill: #72b7b2; stroke-width: 2; opacity: 0.7;"></path><path transform="translate(26.313134952085885,94.5)" d="M1.4207032153524393,0A1.4207032153524393,1.4207032153524393,0,1,1,-1.4207032153524393,0A1.4207032153524393,1.4207032153524393,0,1,1,1.4207032153524393,0" style="fill: #54a24b; stroke-width: 2; opacity: 0.7;"></path><path transform="translate(26.313134952085885,31.5)" d="M2.464736459750563,0A2.464736459750563,2.464736459750563,0,1,1,-2.464736459750563,0A2.464736459750563,2.464736459750563,0,1,1,2.464736459750563,0" style="fill: #f58518; stroke-width: 2; opacity: 0.7;"></path><path transform="translate(26.313134952085885,52.5)" d="M2.1330381225021453,0A2.1330381225021453,2.1330381225021453,0,1,1,-2.1330381225021453,0A2.1330381225021453,2.1330381225021453,0,1,1,2.1330381225021453,0" style="fill: #e45756; stroke-width: 2; opacity: 0.7;"></path><path transform="translate(31.572879890482024,52.5)" d="M1.7768708534031366,0A1.7768708534031366,1.7768708534031366,0,1,1,-1.7768708534031366,0A1.7768708534031366,1.7768708534031366,0,1,1,1.7768708534031366,0" style="fill: #e45756; stroke-width: 2; opacity: 0.7;"></path><path transform="translate(31.572879890482024,10.5)" d="M2.362541507336377,0A2.362541507336377,2.362541507336377,0,1,1,-2.362541507336377,0A2.362541507336377,2.362541507336377,0,1,1,2.362541507336377,0" style="fill: #4c78a8; stroke-width: 2; opacity: 0.7;"></path><path transform="translate(31.572879890482024,31.5)" d="M2.5184777089198964,0A2.5184777089198964,2.5184777089198964,0,1,1,-2.5184777089198964,0A2.5184777089198964,2.5184777089198964,0,1,1,2.5184777089198964,0" style="fill: #f58518; stroke-width: 2; opacity: 0.7;"></path><path transform="translate(31.572879890482024,94.5)" d="M1.4364892911816383,0A1.4364892911816383,1.4364892911816383,0,1,1,-1.4364892911816383,0A1.4364892911816383,1.4364892911816383,0,1,1,1.4364892911816383,0" style="fill: #54a24b; stroke-width: 2; opacity: 0.7;"></path><path transform="translate(31.572879890482024,115.5)" d="M1.4296043319723346,0A1.4296043319723346,1.4296043319723346,0,1,1,-1.4296043319723346,0A1.4296043319723346,1.4296043319723346,0,1,1,1.4296043319723346,0" style="fill: #eeca3b; stroke-width: 2; opacity: 0.7;"></path><path transform="translate(31.572879890482024,136.5)" d="M1.8153238260629452,0A1.8153238260629452,1.8153238260629452,0,1,1,-1.8153238260629452,0A1.8153238260629452,1.8153238260629452,0,1,1,1.8153238260629452,0" style="fill: #b279a2; stroke-width: 2; opacity: 0.7;"></path><path transform="translate(31.572879890482024,73.5)" d="M2.2337444444974994,0A2.2337444444974994,2.2337444444974994,0,1,1,-2.2337444444974994,0A2.2337444444974994,2.2337444444974994,0,1,1,2.2337444444974994,0" style="fill: #72b7b2; stroke-width: 2; opacity: 0.7;"></path><path transform="translate(36.83262482887816,10.5)" d="M2.398070440950935,0A2.398070440950935,2.398070440950935,0,1,1,-2.398070440950935,0A2.398070440950935,2.398070440950935,0,1,1,2.398070440950935,0" style="fill: #4c78a8; stroke-width: 2; opacity: 0.7;"></path><path transform="translate(36.83262482887816,115.5)" d="M1.4866368153558935,0A1.4866368153558935,1.4866368153558935,0,1,1,-1.4866368153558935,0A1.4866368153558935,1.4866368153558935,0,1,1,1.4866368153558935,0" style="fill: #eeca3b; stroke-width: 2; opacity: 0.7;"></path><path transform="translate(36.83262482887816,73.5)" d="M2.4999406521145566,0A2.4999406521145566,2.4999406521145566,0,1,1,-2.4999406521145566,0A2.4999406521145566,2.4999406521145566,0,1,1,2.4999406521145566,0" style="fill: #72b7b2; stroke-width: 2; opacity: 0.7;"></path><path transform="translate(36.83262482887816,52.5)" d="M2.637663744618254,0A2.637663744618254,2.637663744618254,0,1,1,-2.637663744618254,0A2.637663744618254,2.637663744618254,0,1,1,2.637663744618254,0" style="fill: #e45756; stroke-width: 2; opacity: 0.7;"></path><path transform="translate(36.83262482887816,136.5)" d="M1.9794942854458457,0A1.9794942854458457,1.9794942854458457,0,1,1,-1.9794942854458457,0A1.9794942854458457,1.9794942854458457,0,1,1,1.9794942854458457,0" style="fill: #b279a2; stroke-width: 2; opacity: 0.7;"></path><path transform="translate(36.83262482887816,94.5)" d="M1.5185304468797753,0A1.5185304468797753,1.5185304468797753,0,1,1,-1.5185304468797753,0A1.5185304468797753,1.5185304468797753,0,1,1,1.5185304468797753,0" style="fill: #54a24b; stroke-width: 2; opacity: 0.7;"></path><path transform="translate(36.83262482887816,31.5)" d="M2.859208663944669,0A2.859208663944669,2.859208663944669,0,1,1,-2.859208663944669,0A2.859208663944669,2.859208663944669,0,1,1,2.859208663944669,0" style="fill: #f58518; stroke-width: 2; opacity: 0.7;"></path><path transform="translate(42.10678002737949,73.5)" d="M2.6737541817325585,0A2.6737541817325585,2.6737541817325585,0,1,1,-2.6737541817325585,0A2.6737541817325585,2.6737541817325585,0,1,1,2.6737541817325585,0" style="fill: #72b7b2; stroke-width: 2; opacity: 0.7;"></path><path transform="translate(42.10678002737949,31.5)" d="M3.0268335052079194,0A3.0268335052079194,3.0268335052079194,0,1,1,-3.0268335052079194,0A3.0268335052079194,3.0268335052079194,0,1,1,3.0268335052079194,0" style="fill: #f58518; stroke-width: 2; opacity: 0.7;"></path><path transform="translate(42.10678002737949,52.5)" d="M2.7104041767210556,0A2.7104041767210556,2.7104041767210556,0,1,1,-2.7104041767210556,0A2.7104041767210556,2.7104041767210556,0,1,1,2.7104041767210556,0" style="fill: #e45756; stroke-width: 2; opacity: 0.7;"></path><path transform="translate(42.10678002737949,10.5)" d="M2.590212117386601,0A2.590212117386601,2.590212117386601,0,1,1,-2.590212117386601,0A2.590212117386601,2.590212117386601,0,1,1,2.590212117386601,0" style="fill: #4c78a8; stroke-width: 2; opacity: 0.7;"></path><path transform="translate(42.10678002737949,94.5)" d="M1.5857301344639891,0A1.5857301344639891,1.5857301344639891,0,1,1,-1.5857301344639891,0A1.5857301344639891,1.5857301344639891,0,1,1,1.5857301344639891,0" style="fill: #54a24b; stroke-width: 2; opacity: 0.7;"></path><path transform="translate(42.10678002737949,115.5)" d="M1.558836208974341,0A1.558836208974341,1.558836208974341,0,1,1,-1.558836208974341,0A1.558836208974341,1.558836208974341,0,1,1,1.558836208974341,0" style="fill: #eeca3b; stroke-width: 2; opacity: 0.7;"></path><path transform="translate(42.10678002737949,136.5)" d="M2.057698867443951,0A2.057698867443951,2.057698867443951,0,1,1,-2.057698867443951,0A2.057698867443951,2.057698867443951,0,1,1,2.057698867443951,0" style="fill: #b279a2; stroke-width: 2; opacity: 0.7;"></path><path transform="translate(47.36652496577563,115.5)" d="M1.719628349882924,0A1.719628349882924,1.719628349882924,0,1,1,-1.719628349882924,0A1.719628349882924,1.719628349882924,0,1,1,1.719628349882924,0" style="fill: #eeca3b; stroke-width: 2; opacity: 0.7;"></path><path transform="translate(47.36652496577563,73.5)" d="M2.6600127172226733,0A2.6600127172226733,2.6600127172226733,0,1,1,-2.6600127172226733,0A2.6600127172226733,2.6600127172226733,0,1,1,2.6600127172226733,0" style="fill: #72b7b2; stroke-width: 2; opacity: 0.7;"></path><path transform="translate(47.36652496577563,94.5)" d="M1.6356107580744215,0A1.6356107580744215,1.6356107580744215,0,1,1,-1.6356107580744215,0A1.6356107580744215,1.6356107580744215,0,1,1,1.6356107580744215,0" style="fill: #54a24b; stroke-width: 2; opacity: 0.7;"></path><path transform="translate(47.36652496577563,136.5)" d="M2.196841541769437,0A2.196841541769437,2.196841541769437,0,1,1,-2.196841541769437,0A2.196841541769437,2.196841541769437,0,1,1,2.196841541769437,0" style="fill: #b279a2; stroke-width: 2; opacity: 0.7;"></path><path transform="translate(47.36652496577563,52.5)" d="M2.6937117674416116,0A2.6937117674416116,2.6937117674416116,0,1,1,-2.6937117674416116,0A2.6937117674416116,2.6937117674416116,0,1,1,2.6937117674416116,0" style="fill: #e45756; stroke-width: 2; opacity: 0.7;"></path><path transform="translate(47.36652496577563,31.5)" d="M3.10271729285904,0A3.10271729285904,3.10271729285904,0,1,1,-3.10271729285904,0A3.10271729285904,3.10271729285904,0,1,1,3.10271729285904,0" style="fill: #f58518; stroke-width: 2; opacity: 0.7;"></path><path transform="translate(47.36652496577563,10.5)" d="M2.912930346703775,0A2.912930346703775,2.912930346703775,0,1,1,-2.912930346703775,0A2.912930346703775,2.912930346703775,0,1,1,2.912930346703775,0" style="fill: #4c78a8; stroke-width: 2; opacity: 0.7;"></path><path transform="translate(52.62626990417177,157.5)" d="M0.1061883439539924,0A0.1061883439539924,0.1061883439539924,0,1,1,-0.1061883439539924,0A0.1061883439539924,0.1061883439539924,0,1,1,0.1061883439539924,0" style="fill: #ff9da6; stroke-width: 2; opacity: 0.7;"></path><path transform="translate(52.62626990417177,31.5)" d="M3.0338104645343456,0A3.0338104645343456,3.0338104645343456,0,1,1,-3.0338104645343456,0A3.0338104645343456,3.0338104645343456,0,1,1,3.0338104645343456,0" style="fill: #f58518; stroke-width: 2; opacity: 0.7;"></path><path transform="translate(52.62626990417177,73.5)" d="M2.8219939496093978,0A2.8219939496093978,2.8219939496093978,0,1,1,-2.8219939496093978,0A2.8219939496093978,2.8219939496093978,0,1,1,2.8219939496093978,0" style="fill: #72b7b2; stroke-width: 2; opacity: 0.7;"></path><path transform="translate(52.62626990417177,136.5)" d="M2.3191884388373434,0A2.3191884388373434,2.3191884388373434,0,1,1,-2.3191884388373434,0A2.3191884388373434,2.3191884388373434,0,1,1,2.3191884388373434,0" style="fill: #b279a2; stroke-width: 2; opacity: 0.7;"></path><path transform="translate(52.62626990417177,115.5)" d="M2.0238562363176635,0A2.0238562363176635,2.0238562363176635,0,1,1,-2.0238562363176635,0A2.0238562363176635,2.0238562363176635,0,1,1,2.0238562363176635,0" style="fill: #eeca3b; stroke-width: 2; opacity: 0.7;"></path><path transform="translate(52.62626990417177,52.5)" d="M2.8384285366842517,0A2.8384285366842517,2.8384285366842517,0,1,1,-2.8384285366842517,0A2.8384285366842517,2.8384285366842517,0,1,1,2.8384285366842517,0" style="fill: #e45756; stroke-width: 2; opacity: 0.7;"></path><path transform="translate(52.62626990417177,94.5)" d="M1.812993000587162,0A1.812993000587162,1.812993000587162,0,1,1,-1.812993000587162,0A1.812993000587162,1.812993000587162,0,1,1,1.812993000587162,0" style="fill: #54a24b; stroke-width: 2; opacity: 0.7;"></path><path transform="translate(52.62626990417177,10.5)" d="M3.150055343115169,0A3.150055343115169,3.150055343115169,0,1,1,-3.150055343115169,0A3.150055343115169,3.150055343115169,0,1,1,3.150055343115169,0" style="fill: #4c78a8; stroke-width: 2; opacity: 0.7;"></path><path transform="translate(57.88601484256791,10.5)" d="M3.185650318619772,0A3.185650318619772,3.185650318619772,0,1,1,-3.185650318619772,0A3.185650318619772,3.185650318619772,0,1,1,3.185650318619772,0" style="fill: #4c78a8; stroke-width: 2; opacity: 0.7;"></path><path transform="translate(57.88601484256791,52.5)" d="M2.890586378962463,0A2.890586378962463,2.890586378962463,0,1,1,-2.890586378962463,0A2.890586378962463,2.890586378962463,0,1,1,2.890586378962463,0" style="fill: #e45756; stroke-width: 2; opacity: 0.7;"></path><path transform="translate(57.88601484256791,73.5)" d="M2.9061481946688223,0A2.9061481946688223,2.9061481946688223,0,1,1,-2.9061481946688223,0A2.9061481946688223,2.9061481946688223,0,1,1,2.9061481946688223,0" style="fill: #72b7b2; stroke-width: 2; opacity: 0.7;"></path><path transform="translate(57.88601484256791,31.5)" d="M3.0981711844937325,0A3.0981711844937325,3.0981711844937325,0,1,1,-3.0981711844937325,0A3.0981711844937325,3.0981711844937325,0,1,1,3.0981711844937325,0" style="fill: #f58518; stroke-width: 2; opacity: 0.7;"></path><path transform="translate(57.88601484256791,136.5)" d="M2.445215761174126,0A2.445215761174126,2.445215761174126,0,1,1,-2.445215761174126,0A2.445215761174126,2.445215761174126,0,1,1,2.445215761174126,0" style="fill: #b279a2; stroke-width: 2; opacity: 0.7;"></path><path transform="translate(57.88601484256791,94.5)" d="M1.9187502114364028,0A1.9187502114364028,1.9187502114364028,0,1,1,-1.9187502114364028,0A1.9187502114364028,1.9187502114364028,0,1,1,1.9187502114364028,0" style="fill: #54a24b; stroke-width: 2; opacity: 0.7;"></path><path transform="translate(57.88601484256791,157.5)" d="M0.11872217774962791,0A0.11872217774962791,0.11872217774962791,0,1,1,-0.11872217774962791,0A0.11872217774962791,0.11872217774962791,0,1,1,0.11872217774962791,0" style="fill: #ff9da6; stroke-width: 2; opacity: 0.7;"></path><path transform="translate(57.88601484256791,115.5)" d="M2.3094439065000105,0A2.3094439065000105,2.3094439065000105,0,1,1,-2.3094439065000105,0A2.3094439065000105,2.3094439065000105,0,1,1,2.3094439065000105,0" style="fill: #eeca3b; stroke-width: 2; opacity: 0.7;"></path><path transform="translate(63.16017004106924,52.5)" d="M3.131206003854692,0A3.131206003854692,3.131206003854692,0,1,1,-3.131206003854692,0A3.131206003854692,3.131206003854692,0,1,1,3.131206003854692,0" style="fill: #e45756; stroke-width: 2; opacity: 0.7;"></path><path transform="translate(63.16017004106924,73.5)" d="M3.147817292855291,0A3.147817292855291,3.147817292855291,0,1,1,-3.147817292855291,0A3.147817292855291,3.147817292855291,0,1,1,3.147817292855291,0" style="fill: #72b7b2; stroke-width: 2; opacity: 0.7;"></path><path transform="translate(63.16017004106924,94.5)" d="M2.090319641055027,0A2.090319641055027,2.090319641055027,0,1,1,-2.090319641055027,0A2.090319641055027,2.090319641055027,0,1,1,2.090319641055027,0" style="fill: #54a24b; stroke-width: 2; opacity: 0.7;"></path><path transform="translate(63.16017004106924,157.5)" d="M0.26547085988498104,0A0.26547085988498104,0.26547085988498104,0,1,1,-0.26547085988498104,0A0.26547085988498104,0.26547085988498104,0,1,1,0.26547085988498104,0" style="fill: #ff9da6; stroke-width: 2; opacity: 0.7;"></path><path transform="translate(63.16017004106924,115.5)" d="M2.660542547467391,0A2.660542547467391,2.660542547467391,0,1,1,-2.660542547467391,0A2.660542547467391,2.660542547467391,0,1,1,2.660542547467391,0" style="fill: #eeca3b; stroke-width: 2; opacity: 0.7;"></path><path transform="translate(63.16017004106924,136.5)" d="M2.58912356423183,0A2.58912356423183,2.58912356423183,0,1,1,-2.58912356423183,0A2.58912356423183,2.58912356423183,0,1,1,2.58912356423183,0" style="fill: #b279a2; stroke-width: 2; opacity: 0.7;"></path><path transform="translate(63.16017004106924,10.5)" d="M3.1321061637134067,0A3.1321061637134067,3.1321061637134067,0,1,1,-3.1321061637134067,0A3.1321061637134067,3.1321061637134067,0,1,1,3.1321061637134067,0" style="fill: #4c78a8; stroke-width: 2; opacity: 0.7;"></path><path transform="translate(63.16017004106924,31.5)" d="M3.366354736751587,0A3.366354736751587,3.366354736751587,0,1,1,-3.366354736751587,0A3.366354736751587,3.366354736751587,0,1,1,3.366354736751587,0" style="fill: #f58518; stroke-width: 2; opacity: 0.7;"></path><path transform="translate(68.41991497946537,10.5)" d="M3.0730473764720165,0A3.0730473764720165,3.0730473764720165,0,1,1,-3.0730473764720165,0A3.0730473764720165,3.0730473764720165,0,1,1,3.0730473764720165,0" style="fill: #4c78a8; stroke-width: 2; opacity: 0.7;"></path><path transform="translate(68.41991497946537,94.5)" d="M2.039811476713994,0A2.039811476713994,2.039811476713994,0,1,1,-2.039811476713994,0A2.039811476713994,2.039811476713994,0,1,1,2.039811476713994,0" style="fill: #54a24b; stroke-width: 2; opacity: 0.7;"></path><path transform="translate(68.41991497946537,115.5)" d="M2.889610982822338,0A2.889610982822338,2.889610982822338,0,1,1,-2.889610982822338,0A2.889610982822338,2.889610982822338,0,1,1,2.889610982822338,0" style="fill: #eeca3b; stroke-width: 2; opacity: 0.7;"></path><path transform="translate(68.41991497946537,73.5)" d="M3.2664784257113935,0A3.2664784257113935,3.2664784257113935,0,1,1,-3.2664784257113935,0A3.2664784257113935,3.2664784257113935,0,1,1,3.2664784257113935,0" style="fill: #72b7b2; stroke-width: 2; opacity: 0.7;"></path><path transform="translate(68.41991497946537,136.5)" d="M2.6317790803174264,0A2.6317790803174264,2.6317790803174264,0,1,1,-2.6317790803174264,0A2.6317790803174264,2.6317790803174264,0,1,1,2.6317790803174264,0" style="fill: #b279a2; stroke-width: 2; opacity: 0.7;"></path><path transform="translate(68.41991497946537,157.5)" d="M0.35218689400459713,0A0.35218689400459713,0.35218689400459713,0,1,1,-0.35218689400459713,0A0.35218689400459713,0.35218689400459713,0,1,1,0.35218689400459713,0" style="fill: #ff9da6; stroke-width: 2; opacity: 0.7;"></path><path transform="translate(68.41991497946537,52.5)" d="M3.194487090986707,0A3.194487090986707,3.194487090986707,0,1,1,-3.194487090986707,0A3.194487090986707,3.194487090986707,0,1,1,3.194487090986707,0" style="fill: #e45756; stroke-width: 2; opacity: 0.7;"></path><path transform="translate(68.41991497946537,31.5)" d="M3.527867018090305,0A3.527867018090305,3.527867018090305,0,1,1,-3.527867018090305,0A3.527867018090305,3.527867018090305,0,1,1,3.527867018090305,0" style="fill: #f58518; stroke-width: 2; opacity: 0.7;"></path><path transform="translate(73.67965991786151,31.5)" d="M3.643823276617105,0A3.643823276617105,3.643823276617105,0,1,1,-3.643823276617105,0A3.643823276617105,3.643823276617105,0,1,1,3.643823276617105,0" style="fill: #f58518; stroke-width: 2; opacity: 0.7;"></path><path transform="translate(73.67965991786151,157.5)" d="M0.32295923987888225,0A0.32295923987888225,0.32295923987888225,0,1,1,-0.32295923987888225,0A0.32295923987888225,0.32295923987888225,0,1,1,0.32295923987888225,0" style="fill: #ff9da6; stroke-width: 2; opacity: 0.7;"></path><path transform="translate(73.67965991786151,94.5)" d="M1.9666356516523718,0A1.9666356516523718,1.9666356516523718,0,1,1,-1.9666356516523718,0A1.9666356516523718,1.9666356516523718,0,1,1,1.9666356516523718,0" style="fill: #54a24b; stroke-width: 2; opacity: 0.7;"></path><path transform="translate(73.67965991786151,52.5)" d="M3.678472137998285,0A3.678472137998285,3.678472137998285,0,1,1,-3.678472137998285,0A3.678472137998285,3.678472137998285,0,1,1,3.678472137998285,0" style="fill: #e45756; stroke-width: 2; opacity: 0.7;"></path><path transform="translate(73.67965991786151,115.5)" d="M3.1607759254712406,0A3.1607759254712406,3.1607759254712406,0,1,1,-3.1607759254712406,0A3.1607759254712406,3.1607759254712406,0,1,1,3.1607759254712406,0" style="fill: #eeca3b; stroke-width: 2; opacity: 0.7;"></path><path transform="translate(73.67965991786151,73.5)" d="M3.829411402734715,0A3.829411402734715,3.829411402734715,0,1,1,-3.829411402734715,0A3.829411402734715,3.829411402734715,0,1,1,3.829411402734715,0" style="fill: #72b7b2; stroke-width: 2; opacity: 0.7;"></path><path transform="translate(73.67965991786151,10.5)" d="M3.0730473764720165,0A3.0730473764720165,3.0730473764720165,0,1,1,-3.0730473764720165,0A3.0730473764720165,3.0730473764720165,0,1,1,3.0730473764720165,0" style="fill: #4c78a8; stroke-width: 2; opacity: 0.7;"></path><path transform="translate(73.67965991786151,136.5)" d="M3.0161041548655168,0A3.0161041548655168,3.0161041548655168,0,1,1,-3.0161041548655168,0A3.0161041548655168,3.0161041548655168,0,1,1,3.0161041548655168,0" style="fill: #b279a2; stroke-width: 2; opacity: 0.7;"></path><path transform="translate(78.93940485625765,157.5)" d="M0.5256054866498628,0A0.5256054866498628,0.5256054866498628,0,1,1,-0.5256054866498628,0A0.5256054866498628,0.5256054866498628,0,1,1,0.5256054866498628,0" style="fill: #ff9da6; stroke-width: 2; opacity: 0.7;"></path><path transform="translate(78.93940485625765,115.5)" d="M3.5675965028463716,0A3.5675965028463716,3.5675965028463716,0,1,1,-3.5675965028463716,0A3.5675965028463716,3.5675965028463716,0,1,1,3.5675965028463716,0" style="fill: #eeca3b; stroke-width: 2; opacity: 0.7;"></path><path transform="translate(78.93940485625765,10.5)" d="M3.0730473764720165,0A3.0730473764720165,3.0730473764720165,0,1,1,-3.0730473764720165,0A3.0730473764720165,3.0730473764720165,0,1,1,3.0730473764720165,0" style="fill: #4c78a8; stroke-width: 2; opacity: 0.7;"></path><path transform="translate(78.93940485625765,73.5)" d="M3.4755397932694434,0A3.4755397932694434,3.4755397932694434,0,1,1,-3.4755397932694434,0A3.4755397932694434,3.4755397932694434,0,1,1,3.4755397932694434,0" style="fill: #72b7b2; stroke-width: 2; opacity: 0.7;"></path><path transform="translate(78.93940485625765,52.5)" d="M3.376388603226826,0A3.376388603226826,3.376388603226826,0,1,1,-3.376388603226826,0A3.376388603226826,3.376388603226826,0,1,1,3.376388603226826,0" style="fill: #e45756; stroke-width: 2; opacity: 0.7;"></path><path transform="translate(78.93940485625765,94.5)" d="M1.8161001031247515,0A1.8161001031247515,1.8161001031247515,0,1,1,-1.8161001031247515,0A1.8161001031247515,1.8161001031247515,0,1,1,1.8161001031247515,0" style="fill: #54a24b; stroke-width: 2; opacity: 0.7;"></path><path transform="translate(78.93940485625765,31.5)" d="M3.185650318619772,0A3.185650318619772,3.185650318619772,0,1,1,-3.185650318619772,0A3.185650318619772,3.185650318619772,0,1,1,3.185650318619772,0" style="fill: #f58518; stroke-width: 2; opacity: 0.7;"></path><path transform="translate(78.93940485625765,136.5)" d="M3.034275024749079,0A3.034275024749079,3.034275024749079,0,1,1,-3.034275024749079,0A3.034275024749079,3.034275024749079,0,1,1,3.034275024749079,0" style="fill: #b279a2; stroke-width: 2; opacity: 0.7;"></path><path transform="translate(84.21356005475899,10.5)" d="M3.040771415477813,0A3.040771415477813,3.040771415477813,0,1,1,-3.040771415477813,0A3.040771415477813,3.040771415477813,0,1,1,3.040771415477813,0" style="fill: #4c78a8; stroke-width: 2; opacity: 0.7;"></path><path transform="translate(84.21356005475899,52.5)" d="M3.238309263222553,0A3.238309263222553,3.238309263222553,0,1,1,-3.238309263222553,0A3.238309263222553,3.238309263222553,0,1,1,3.238309263222553,0" style="fill: #e45756; stroke-width: 2; opacity: 0.7;"></path><path transform="translate(84.21356005475899,94.5)" d="M1.515743297793898,0A1.515743297793898,1.515743297793898,0,1,1,-1.515743297793898,0A1.515743297793898,1.515743297793898,0,1,1,1.515743297793898,0" style="fill: #54a24b; stroke-width: 2; opacity: 0.7;"></path><path transform="translate(84.21356005475899,136.5)" d="M3.263456506214312,0A3.263456506214312,3.263456506214312,0,1,1,-3.263456506214312,0A3.263456506214312,3.263456506214312,0,1,1,3.263456506214312,0" style="fill: #b279a2; stroke-width: 2; opacity: 0.7;"></path><path transform="translate(84.21356005475899,31.5)" d="M2.9656790496477003,0A2.9656790496477003,2.9656790496477003,0,1,1,-2.9656790496477003,0A2.9656790496477003,2.9656790496477003,0,1,1,2.9656790496477003,0" style="fill: #f58518; stroke-width: 2; opacity: 0.7;"></path><path transform="translate(84.21356005475899,73.5)" d="M3.877692421572458,0A3.877692421572458,3.877692421572458,0,1,1,-3.877692421572458,0A3.877692421572458,3.877692421572458,0,1,1,3.877692421572458,0" style="fill: #72b7b2; stroke-width: 2; opacity: 0.7;"></path><path transform="translate(84.21356005475899,115.5)" d="M3.7535739645594304,0A3.7535739645594304,3.7535739645594304,0,1,1,-3.7535739645594304,0A3.7535739645594304,3.7535739645594304,0,1,1,3.7535739645594304,0" style="fill: #eeca3b; stroke-width: 2; opacity: 0.7;"></path><path transform="translate(84.21356005475899,157.5)" d="M0.7981804232944854,0A0.7981804232944854,0.7981804232944854,0,1,1,-0.7981804232944854,0A0.7981804232944854,0.7981804232944854,0,1,1,0.7981804232944854,0" style="fill: #ff9da6; stroke-width: 2; opacity: 0.7;"></path><path transform="translate(89.47330499315512,136.5)" d="M3.618982265907026,0A3.618982265907026,3.618982265907026,0,1,1,-3.618982265907026,0A3.618982265907026,3.618982265907026,0,1,1,3.618982265907026,0" style="fill: #b279a2; stroke-width: 2; opacity: 0.7;"></path><path transform="translate(89.47330499315512,115.5)" d="M4.010982697026465,0A4.010982697026465,4.010982697026465,0,1,1,-4.010982697026465,0A4.010982697026465,4.010982697026465,0,1,1,4.010982697026465,0" style="fill: #eeca3b; stroke-width: 2; opacity: 0.7;"></path><path transform="translate(89.47330499315512,31.5)" d="M2.912930346703775,0A2.912930346703775,2.912930346703775,0,1,1,-2.912930346703775,0A2.912930346703775,2.912930346703775,0,1,1,2.912930346703775,0" style="fill: #f58518; stroke-width: 2; opacity: 0.7;"></path><path transform="translate(89.47330499315512,94.5)" d="M1.2564374297340857,0A1.2564374297340857,1.2564374297340857,0,1,1,-1.2564374297340857,0A1.2564374297340857,1.2564374297340857,0,1,1,1.2564374297340857,0" style="fill: #54a24b; stroke-width: 2; opacity: 0.7;"></path><path transform="translate(89.47330499315512,10.5)" d="M3.003459923713502,0A3.003459923713502,3.003459923713502,0,1,1,-3.003459923713502,0A3.003459923713502,3.003459923713502,0,1,1,3.003459923713502,0" style="fill: #4c78a8; stroke-width: 2; opacity: 0.7;"></path><path transform="translate(89.47330499315512,157.5)" d="M0.9761244752068882,0A0.9761244752068882,0.9761244752068882,0,1,1,-0.9761244752068882,0A0.9761244752068882,0.9761244752068882,0,1,1,0.9761244752068882,0" style="fill: #ff9da6; stroke-width: 2; opacity: 0.7;"></path><path transform="translate(89.47330499315512,73.5)" d="M4.42405415799562,0A4.42405415799562,4.42405415799562,0,1,1,-4.42405415799562,0A4.42405415799562,4.42405415799562,0,1,1,4.42405415799562,0" style="fill: #72b7b2; stroke-width: 2; opacity: 0.7;"></path><path transform="translate(89.47330499315512,52.5)" d="M3.154526680132481,0A3.154526680132481,3.154526680132481,0,1,1,-3.154526680132481,0A3.154526680132481,3.154526680132481,0,1,1,3.154526680132481,0" style="fill: #e45756; stroke-width: 2; opacity: 0.7;"></path><path transform="translate(94.73304993155126,31.5)" d="M2.6942349706644624,0A2.6942349706644624,2.6942349706644624,0,1,1,-2.6942349706644624,0A2.6942349706644624,2.6942349706644624,0,1,1,2.6942349706644624,0" style="fill: #f58518; stroke-width: 2; opacity: 0.7;"></path><path transform="translate(94.73304993155126,157.5)" d="M1.08421367259126,0A1.08421367259126,1.08421367259126,0,1,1,-1.08421367259126,0A1.08421367259126,1.08421367259126,0,1,1,1.08421367259126,0" style="fill: #ff9da6; stroke-width: 2; opacity: 0.7;"></path><path transform="translate(94.73304993155126,136.5)" d="M3.941147161621207,0A3.941147161621207,3.941147161621207,0,1,1,-3.941147161621207,0A3.941147161621207,3.941147161621207,0,1,1,3.941147161621207,0" style="fill: #b279a2; stroke-width: 2; opacity: 0.7;"></path><path transform="translate(94.73304993155126,73.5)" d="M5.0975935440806595,0A5.0975935440806595,5.0975935440806595,0,1,1,-5.0975935440806595,0A5.0975935440806595,5.0975935440806595,0,1,1,5.0975935440806595,0" style="fill: #72b7b2; stroke-width: 2; opacity: 0.7;"></path><path transform="translate(94.73304993155126,10.5)" d="M3.012831116294369,0A3.012831116294369,3.012831116294369,0,1,1,-3.012831116294369,0A3.012831116294369,3.012831116294369,0,1,1,3.012831116294369,0" style="fill: #4c78a8; stroke-width: 2; opacity: 0.7;"></path><path transform="translate(94.73304993155126,115.5)" d="M4.224908476174067,0A4.224908476174067,4.224908476174067,0,1,1,-4.224908476174067,0A4.224908476174067,4.224908476174067,0,1,1,4.224908476174067,0" style="fill: #eeca3b; stroke-width: 2; opacity: 0.7;"></path><path transform="translate(94.73304993155126,52.5)" d="M3.0509520817838562,0A3.0509520817838562,3.0509520817838562,0,1,1,-3.0509520817838562,0A3.0509520817838562,3.0509520817838562,0,1,1,3.0509520817838562,0" style="fill: #e45756; stroke-width: 2; opacity: 0.7;"></path><path transform="translate(94.73304993155126,94.5)" d="M1.0059909562984664,0A1.0059909562984664,1.0059909562984664,0,1,1,-1.0059909562984664,0A1.0059909562984664,1.0059909562984664,0,1,1,1.0059909562984664,0" style="fill: #54a24b; stroke-width: 2; opacity: 0.7;"></path><path transform="translate(99.9927948699474,136.5)" d="M4.200819476363752,0A4.200819476363752,4.200819476363752,0,1,1,-4.200819476363752,0A4.200819476363752,4.200819476363752,0,1,1,4.200819476363752,0" style="fill: #b279a2; stroke-width: 2; opacity: 0.7;"></path><path transform="translate(99.9927948699474,157.5)" d="M1.1692778465756466,0A1.1692778465756466,1.1692778465756466,0,1,1,-1.1692778465756466,0A1.1692778465756466,1.1692778465756466,0,1,1,1.1692778465756466,0" style="fill: #ff9da6; stroke-width: 2; opacity: 0.7;"></path><path transform="translate(99.9927948699474,115.5)" d="M4.354045835028744,0A4.354045835028744,4.354045835028744,0,1,1,-4.354045835028744,0A4.354045835028744,4.354045835028744,0,1,1,4.354045835028744,0" style="fill: #eeca3b; stroke-width: 2; opacity: 0.7;"></path><path transform="translate(99.9927948699474,94.5)" d="M0.9961349639827138,0A0.9961349639827138,0.9961349639827138,0,1,1,-0.9961349639827138,0A0.9961349639827138,0.9961349639827138,0,1,1,0.9961349639827138,0" style="fill: #54a24b; stroke-width: 2; opacity: 0.7;"></path><path transform="translate(99.9927948699474,52.5)" d="M2.9599703262607573,0A2.9599703262607573,2.9599703262607573,0,1,1,-2.9599703262607573,0A2.9599703262607573,2.9599703262607573,0,1,1,2.9599703262607573,0" style="fill: #e45756; stroke-width: 2; opacity: 0.7;"></path><path transform="translate(99.9927948699474,10.5)" d="M2.9846292683407434,0A2.9846292683407434,2.9846292683407434,0,1,1,-2.9846292683407434,0A2.9846292683407434,2.9846292683407434,0,1,1,2.9846292683407434,0" style="fill: #4c78a8; stroke-width: 2; opacity: 0.7;"></path><path transform="translate(99.9927948699474,31.5)" d="M2.7254433663216533,0A2.7254433663216533,2.7254433663216533,0,1,1,-2.7254433663216533,0A2.7254433663216533,2.7254433663216533,0,1,1,2.7254433663216533,0" style="fill: #f58518; stroke-width: 2; opacity: 0.7;"></path><path transform="translate(99.9927948699474,73.5)" d="M5.584487310068891,0A5.584487310068891,5.584487310068891,0,1,1,-5.584487310068891,0A5.584487310068891,5.584487310068891,0,1,1,5.584487310068891,0" style="fill: #72b7b2; stroke-width: 2; opacity: 0.7;"></path><path transform="translate(105.26695006844872,10.5)" d="M2.9987633455099267,0A2.9987633455099267,2.9987633455099267,0,1,1,-2.9987633455099267,0A2.9987633455099267,2.9987633455099267,0,1,1,2.9987633455099267,0" style="fill: #4c78a8; stroke-width: 2; opacity: 0.7;"></path><path transform="translate(105.26695006844872,115.5)" d="M4.39400387228705,0A4.39400387228705,4.39400387228705,0,1,1,-4.39400387228705,0A4.39400387228705,4.39400387228705,0,1,1,4.39400387228705,0" style="fill: #eeca3b; stroke-width: 2; opacity: 0.7;"></path><path transform="translate(105.26695006844872,31.5)" d="M2.784281867787066,0A2.784281867787066,2.784281867787066,0,1,1,-2.784281867787066,0A2.784281867787066,2.784281867787066,0,1,1,2.784281867787066,0" style="fill: #f58518; stroke-width: 2; opacity: 0.7;"></path><path transform="translate(105.26695006844872,52.5)" d="M2.8364415371150895,0A2.8364415371150895,2.8364415371150895,0,1,1,-2.8364415371150895,0A2.8364415371150895,2.8364415371150895,0,1,1,2.8364415371150895,0" style="fill: #e45756; stroke-width: 2; opacity: 0.7;"></path><path transform="translate(105.26695006844872,136.5)" d="M4.447251009671785,0A4.447251009671785,4.447251009671785,0,1,1,-4.447251009671785,0A4.447251009671785,4.447251009671785,0,1,1,4.447251009671785,0" style="fill: #b279a2; stroke-width: 2; opacity: 0.7;"></path><path transform="translate(105.26695006844872,94.5)" d="M1.1740897098962553,0A1.1740897098962553,1.1740897098962553,0,1,1,-1.1740897098962553,0A1.1740897098962553,1.1740897098962553,0,1,1,1.1740897098962553,0" style="fill: #54a24b; stroke-width: 2; opacity: 0.7;"></path><path transform="translate(105.26695006844872,157.5)" d="M1.2564374297340857,0A1.2564374297340857,1.2564374297340857,0,1,1,-1.2564374297340857,0A1.2564374297340857,1.2564374297340857,0,1,1,1.2564374297340857,0" style="fill: #ff9da6; stroke-width: 2; opacity: 0.7;"></path><path transform="translate(105.26695006844872,73.5)" d="M5.915176878793939,0A5.915176878793939,5.915176878793939,0,1,1,-5.915176878793939,0A5.915176878793939,5.915176878793939,0,1,1,5.915176878793939,0" style="fill: #72b7b2; stroke-width: 2; opacity: 0.7;"></path><path transform="translate(110.52669500684486,115.5)" d="M4.333928666401876,0A4.333928666401876,4.333928666401876,0,1,1,-4.333928666401876,0A4.333928666401876,4.333928666401876,0,1,1,4.333928666401876,0" style="fill: #eeca3b; stroke-width: 2; opacity: 0.7;"></path><path transform="translate(110.52669500684486,52.5)" d="M2.6968494642157816,0A2.6968494642157816,2.6968494642157816,0,1,1,-2.6968494642157816,0A2.6968494642157816,2.6968494642157816,0,1,1,2.6968494642157816,0" style="fill: #e45756; stroke-width: 2; opacity: 0.7;"></path><path transform="translate(110.52669500684486,157.5)" d="M1.5901682347590758,0A1.5901682347590758,1.5901682347590758,0,1,1,-1.5901682347590758,0A1.5901682347590758,1.5901682347590758,0,1,1,1.5901682347590758,0" style="fill: #ff9da6; stroke-width: 2; opacity: 0.7;"></path><path transform="translate(110.52669500684486,31.5)" d="M2.7331897865855472,0A2.7331897865855472,2.7331897865855472,0,1,1,-2.7331897865855472,0A2.7331897865855472,2.7331897865855472,0,1,1,2.7331897865855472,0" style="fill: #f58518; stroke-width: 2; opacity: 0.7;"></path><path transform="translate(110.52669500684486,73.5)" d="M6.051338229021561,0A6.051338229021561,6.051338229021561,0,1,1,-6.051338229021561,0A6.051338229021561,6.051338229021561,0,1,1,6.051338229021561,0" style="fill: #72b7b2; stroke-width: 2; opacity: 0.7;"></path><path transform="translate(110.52669500684486,94.5)" d="M1.1262974713925633,0A1.1262974713925633,1.1262974713925633,0,1,1,-1.1262974713925633,0A1.1262974713925633,1.1262974713925633,0,1,1,1.1262974713925633,0" style="fill: #54a24b; stroke-width: 2; opacity: 0.7;"></path><path transform="translate(110.52669500684486,10.5)" d="M2.9846292683407434,0A2.9846292683407434,2.9846292683407434,0,1,1,-2.9846292683407434,0A2.9846292683407434,2.9846292683407434,0,1,1,2.9846292683407434,0" style="fill: #4c78a8; stroke-width: 2; opacity: 0.7;"></path><path transform="translate(110.52669500684486,136.5)" d="M4.695158185381689,0A4.695158185381689,4.695158185381689,0,1,1,-4.695158185381689,0A4.695158185381689,4.695158185381689,0,1,1,4.695158185381689,0" style="fill: #b279a2; stroke-width: 2; opacity: 0.7;"></path><path transform="translate(115.786439945241,73.5)" d="M6.118973750769918,0A6.118973750769918,6.118973750769918,0,1,1,-6.118973750769918,0A6.118973750769918,6.118973750769918,0,1,1,6.118973750769918,0" style="fill: #72b7b2; stroke-width: 2; opacity: 0.7;"></path><path transform="translate(115.786439945241,52.5)" d="M2.5485202548958177,0A2.5485202548958177,2.5485202548958177,0,1,1,-2.5485202548958177,0A2.5485202548958177,2.5485202548958177,0,1,1,2.5485202548958177,0" style="fill: #e45756; stroke-width: 2; opacity: 0.7;"></path><path transform="translate(115.786439945241,10.5)" d="M2.946606960828399,0A2.946606960828399,2.946606960828399,0,1,1,-2.946606960828399,0A2.946606960828399,2.946606960828399,0,1,1,2.946606960828399,0" style="fill: #4c78a8; stroke-width: 2; opacity: 0.7;"></path><path transform="translate(115.786439945241,31.5)" d="M2.6863762228478896,0A2.6863762228478896,2.6863762228478896,0,1,1,-2.6863762228478896,0A2.6863762228478896,2.6863762228478896,0,1,1,2.6863762228478896,0" style="fill: #f58518; stroke-width: 2; opacity: 0.7;"></path><path transform="translate(115.786439945241,136.5)" d="M4.918882047119225,0A4.918882047119225,4.918882047119225,0,1,1,-4.918882047119225,0A4.918882047119225,4.918882047119225,0,1,1,4.918882047119225,0" style="fill: #b279a2; stroke-width: 2; opacity: 0.7;"></path><path transform="translate(115.786439945241,157.5)" d="M1.7965925545659098,0A1.7965925545659098,1.7965925545659098,0,1,1,-1.7965925545659098,0A1.7965925545659098,1.7965925545659098,0,1,1,1.7965925545659098,0" style="fill: #ff9da6; stroke-width: 2; opacity: 0.7;"></path><path transform="translate(115.786439945241,94.5)" d="M1.1931431198523665,0A1.1931431198523665,1.1931431198523665,0,1,1,-1.1931431198523665,0A1.1931431198523665,1.1931431198523665,0,1,1,1.1931431198523665,0" style="fill: #54a24b; stroke-width: 2; opacity: 0.7;"></path><path transform="translate(115.786439945241,115.5)" d="M4.3283963354567305,0A4.3283963354567305,4.3283963354567305,0,1,1,-4.3283963354567305,0A4.3283963354567305,4.3283963354567305,0,1,1,4.3283963354567305,0" style="fill: #eeca3b; stroke-width: 2; opacity: 0.7;"></path><path transform="translate(121.04618488363714,115.5)" d="M4.301611043175054,0A4.301611043175054,4.301611043175054,0,1,1,-4.301611043175054,0A4.301611043175054,4.301611043175054,0,1,1,4.301611043175054,0" style="fill: #eeca3b; stroke-width: 2; opacity: 0.7;"></path><path transform="translate(121.04618488363714,157.5)" d="M1.7278054209604439,0A1.7278054209604439,1.7278054209604439,0,1,1,-1.7278054209604439,0A1.7278054209604439,1.7278054209604439,0,1,1,1.7278054209604439,0" style="fill: #ff9da6; stroke-width: 2; opacity: 0.7;"></path><path transform="translate(121.04618488363714,73.5)" d="M5.897039442294435,0A5.897039442294435,5.897039442294435,0,1,1,-5.897039442294435,0A5.897039442294435,5.897039442294435,0,1,1,5.897039442294435,0" style="fill: #72b7b2; stroke-width: 2; opacity: 0.7;"></path><path transform="translate(121.04618488363714,52.5)" d="M2.3933637230849865,0A2.3933637230849865,2.3933637230849865,0,1,1,-2.3933637230849865,0A2.3933637230849865,2.3933637230849865,0,1,1,2.3933637230849865,0" style="fill: #e45756; stroke-width: 2; opacity: 0.7;"></path><path transform="translate(121.04618488363714,31.5)" d="M2.57657214834134,0A2.57657214834134,2.57657214834134,0,1,1,-2.57657214834134,0A2.57657214834134,2.57657214834134,0,1,1,2.57657214834134,0" style="fill: #f58518; stroke-width: 2; opacity: 0.7;"></path><path transform="translate(121.04618488363714,94.5)" d="M1.19432386543557,0A1.19432386543557,1.19432386543557,0,1,1,-1.19432386543557,0A1.19432386543557,1.19432386543557,0,1,1,1.19432386543557,0" style="fill: #54a24b; stroke-width: 2; opacity: 0.7;"></path><path transform="translate(121.04618488363714,136.5)" d="M5.521283341120766,0A5.521283341120766,5.521283341120766,0,1,1,-5.521283341120766,0A5.521283341120766,5.521283341120766,0,1,1,5.521283341120766,0" style="fill: #b279a2; stroke-width: 2; opacity: 0.7;"></path><path transform="translate(121.04618488363714,178.5)" d="M0.32295923987888225,0A0.32295923987888225,0.32295923987888225,0,1,1,-0.32295923987888225,0A0.32295923987888225,0.32295923987888225,0,1,1,0.32295923987888225,0" style="fill: #9d755d; stroke-width: 2; opacity: 0.7;"></path><path transform="translate(121.04618488363714,10.5)" d="M2.9418196189812766,0A2.9418196189812766,2.9418196189812766,0,1,1,-2.9418196189812766,0A2.9418196189812766,2.9418196189812766,0,1,1,2.9418196189812766,0" style="fill: #4c78a8; stroke-width: 2; opacity: 0.7;"></path><path transform="translate(126.32034008213849,94.5)" d="M1.469471735355567,0A1.469471735355567,1.469471735355567,0,1,1,-1.469471735355567,0A1.469471735355567,1.469471735355567,0,1,1,1.469471735355567,0" style="fill: #54a24b; stroke-width: 2; opacity: 0.7;"></path><path transform="translate(126.32034008213849,136.5)" d="M5.768480815594458,0A5.768480815594458,5.768480815594458,0,1,1,-5.768480815594458,0A5.768480815594458,5.768480815594458,0,1,1,5.768480815594458,0" style="fill: #b279a2; stroke-width: 2; opacity: 0.7;"></path><path transform="translate(126.32034008213849,178.5)" d="M0.45051898855702527,0A0.45051898855702527,0.45051898855702527,0,1,1,-0.45051898855702527,0A0.45051898855702527,0.45051898855702527,0,1,1,0.45051898855702527,0" style="fill: #9d755d; stroke-width: 2; opacity: 0.7;"></path><path transform="translate(126.32034008213849,115.5)" d="M4.48009113938664,0A4.48009113938664,4.48009113938664,0,1,1,-4.48009113938664,0A4.48009113938664,4.48009113938664,0,1,1,4.48009113938664,0" style="fill: #eeca3b; stroke-width: 2; opacity: 0.7;"></path><path transform="translate(126.32034008213849,10.5)" d="M2.946606960828399,0A2.946606960828399,2.946606960828399,0,1,1,-2.946606960828399,0A2.946606960828399,2.946606960828399,0,1,1,2.946606960828399,0" style="fill: #4c78a8; stroke-width: 2; opacity: 0.7;"></path><path transform="translate(126.32034008213849,157.5)" d="M1.9652017209829382,0A1.9652017209829382,1.9652017209829382,0,1,1,-1.9652017209829382,0A1.9652017209829382,1.9652017209829382,0,1,1,1.9652017209829382,0" style="fill: #ff9da6; stroke-width: 2; opacity: 0.7;"></path><path transform="translate(126.32034008213849,52.5)" d="M2.6695335726581453,0A2.6695335726581453,2.6695335726581453,0,1,1,-2.6695335726581453,0A2.6695335726581453,2.6695335726581453,0,1,1,2.6695335726581453,0" style="fill: #e45756; stroke-width: 2; opacity: 0.7;"></path><path transform="translate(126.32034008213849,31.5)" d="M2.7537403750921152,0A2.7537403750921152,2.7537403750921152,0,1,1,-2.7537403750921152,0A2.7537403750921152,2.7537403750921152,0,1,1,2.7537403750921152,0" style="fill: #f58518; stroke-width: 2; opacity: 0.7;"></path><path transform="translate(126.32034008213849,73.5)" d="M5.8135087746555465,0A5.8135087746555465,5.8135087746555465,0,1,1,-5.8135087746555465,0A5.8135087746555465,5.8135087746555465,0,1,1,5.8135087746555465,0" style="fill: #72b7b2; stroke-width: 2; opacity: 0.7;"></path><path transform="translate(131.58008502053463,52.5)" d="M3.131206003854692,0A3.131206003854692,3.131206003854692,0,1,1,-3.131206003854692,0A3.131206003854692,3.131206003854692,0,1,1,3.131206003854692,0" style="fill: #e45756; stroke-width: 2; opacity: 0.7;"></path><path transform="translate(131.58008502053463,136.5)" d="M5.703362015419655,0A5.703362015419655,5.703362015419655,0,1,1,-5.703362015419655,0A5.703362015419655,5.703362015419655,0,1,1,5.703362015419655,0" style="fill: #b279a2; stroke-width: 2; opacity: 0.7;"></path><path transform="translate(131.58008502053463,31.5)" d="M2.6091882840231517,0A2.6091882840231517,2.6091882840231517,0,1,1,-2.6091882840231517,0A2.6091882840231517,2.6091882840231517,0,1,1,2.6091882840231517,0" style="fill: #f58518; stroke-width: 2; opacity: 0.7;"></path><path transform="translate(131.58008502053463,157.5)" d="M2.2996580832165603,0A2.2996580832165603,2.2996580832165603,0,1,1,-2.2996580832165603,0A2.2996580832165603,2.2996580832165603,0,1,1,2.2996580832165603,0" style="fill: #ff9da6; stroke-width: 2; opacity: 0.7;"></path><path transform="translate(131.58008502053463,115.5)" d="M4.454218152176766,0A4.454218152176766,4.454218152176766,0,1,1,-4.454218152176766,0A4.454218152176766,4.454218152176766,0,1,1,4.454218152176766,0" style="fill: #eeca3b; stroke-width: 2; opacity: 0.7;"></path><path transform="translate(131.58008502053463,178.5)" d="M0.6715940557119724,0A0.6715940557119724,0.6715940557119724,0,1,1,-0.6715940557119724,0A0.6715940557119724,0.6715940557119724,0,1,1,0.6715940557119724,0" style="fill: #9d755d; stroke-width: 2; opacity: 0.7;"></path><path transform="translate(131.58008502053463,10.5)" d="M2.9322214869727503,0A2.9322214869727503,2.9322214869727503,0,1,1,-2.9322214869727503,0A2.9322214869727503,2.9322214869727503,0,1,1,2.9322214869727503,0" style="fill: #4c78a8; stroke-width: 2; opacity: 0.7;"></path><path transform="translate(131.58008502053463,94.5)" d="M2.196841541769437,0A2.196841541769437,2.196841541769437,0,1,1,-2.196841541769437,0A2.196841541769437,2.196841541769437,0,1,1,2.196841541769437,0" style="fill: #54a24b; stroke-width: 2; opacity: 0.7;"></path><path transform="translate(131.58008502053463,73.5)" d="M5.061520630988562,0A5.061520630988562,5.061520630988562,0,1,1,-5.061520630988562,0A5.061520630988562,5.061520630988562,0,1,1,5.061520630988562,0" style="fill: #72b7b2; stroke-width: 2; opacity: 0.7;"></path><path transform="translate(136.83982995893075,136.5)" d="M5.85096811589117,0A5.85096811589117,5.85096811589117,0,1,1,-5.85096811589117,0A5.85096811589117,5.85096811589117,0,1,1,5.85096811589117,0" style="fill: #b279a2; stroke-width: 2; opacity: 0.7;"></path><path transform="translate(136.83982995893075,10.5)" d="M2.9032367080190546,0A2.9032367080190546,2.9032367080190546,0,1,1,-2.9032367080190546,0A2.9032367080190546,2.9032367080190546,0,1,1,2.9032367080190546,0" style="fill: #4c78a8; stroke-width: 2; opacity: 0.7;"></path><path transform="translate(136.83982995893075,115.5)" d="M4.315024472906314,0A4.315024472906314,4.315024472906314,0,1,1,-4.315024472906314,0A4.315024472906314,4.315024472906314,0,1,1,4.315024472906314,0" style="fill: #eeca3b; stroke-width: 2; opacity: 0.7;"></path><path transform="translate(136.83982995893075,94.5)" d="M2.4858053999955194,0A2.4858053999955194,2.4858053999955194,0,1,1,-2.4858053999955194,0A2.4858053999955194,2.4858053999955194,0,1,1,2.4858053999955194,0" style="fill: #54a24b; stroke-width: 2; opacity: 0.7;"></path><path transform="translate(136.83982995893075,73.5)" d="M4.6740968121019995,0A4.6740968121019995,4.6740968121019995,0,1,1,-4.6740968121019995,0A4.6740968121019995,4.6740968121019995,0,1,1,4.6740968121019995,0" style="fill: #72b7b2; stroke-width: 2; opacity: 0.7;"></path><path transform="translate(136.83982995893075,178.5)" d="M0.8804672350114928,0A0.8804672350114928,0.8804672350114928,0,1,1,-0.8804672350114928,0A0.8804672350114928,0.8804672350114928,0,1,1,0.8804672350114928,0" style="fill: #9d755d; stroke-width: 2; opacity: 0.7;"></path><path transform="translate(136.83982995893075,31.5)" d="M2.5793059126629245,0A2.5793059126629245,2.5793059126629245,0,1,1,-2.5793059126629245,0A2.5793059126629245,2.5793059126629245,0,1,1,2.5793059126629245,0" style="fill: #f58518; stroke-width: 2; opacity: 0.7;"></path><path transform="translate(136.83982995893075,157.5)" d="M2.6328499975866997,0A2.6328499975866997,2.6328499975866997,0,1,1,-2.6328499975866997,0A2.6328499975866997,2.6328499975866997,0,1,1,2.6328499975866997,0" style="fill: #ff9da6; stroke-width: 2; opacity: 0.7;"></path><path transform="translate(136.83982995893075,52.5)" d="M3.5821847352900162,0A3.5821847352900162,3.5821847352900162,0,1,1,-3.5821847352900162,0A3.5821847352900162,3.5821847352900162,0,1,1,3.5821847352900162,0" style="fill: #e45756; stroke-width: 2; opacity: 0.7;"></path><path transform="translate(142.0995748973269,157.5)" d="M2.9346239629898587,0A2.9346239629898587,2.9346239629898587,0,1,1,-2.9346239629898587,0A2.9346239629898587,2.9346239629898587,0,1,1,2.9346239629898587,0" style="fill: #ff9da6; stroke-width: 2; opacity: 0.7;"></path><path transform="translate(142.0995748973269,10.5)" d="M2.9032367080190546,0A2.9032367080190546,2.9032367080190546,0,1,1,-2.9032367080190546,0A2.9032367080190546,2.9032367080190546,0,1,1,2.9032367080190546,0" style="fill: #4c78a8; stroke-width: 2; opacity: 0.7;"></path><path transform="translate(142.0995748973269,94.5)" d="M2.337349941231411,0A2.337349941231411,2.337349941231411,0,1,1,-2.337349941231411,0A2.337349941231411,2.337349941231411,0,1,1,2.337349941231411,0" style="fill: #54a24b; stroke-width: 2; opacity: 0.7;"></path><path transform="translate(142.0995748973269,31.5)" d="M2.551836483045452,0A2.551836483045452,2.551836483045452,0,1,1,-2.551836483045452,0A2.551836483045452,2.551836483045452,0,1,1,2.551836483045452,0" style="fill: #f58518; stroke-width: 2; opacity: 0.7;"></path><path transform="translate(142.0995748973269,73.5)" d="M4.3685889864964045,0A4.3685889864964045,4.3685889864964045,0,1,1,-4.3685889864964045,0A4.3685889864964045,4.3685889864964045,0,1,1,4.3685889864964045,0" style="fill: #72b7b2; stroke-width: 2; opacity: 0.7;"></path><path transform="translate(142.0995748973269,115.5)" d="M4.108542161687284,0A4.108542161687284,4.108542161687284,0,1,1,-4.108542161687284,0A4.108542161687284,4.108542161687284,0,1,1,4.108542161687284,0" style="fill: #eeca3b; stroke-width: 2; opacity: 0.7;"></path><path transform="translate(142.0995748973269,136.5)" d="M5.895126992287178,0A5.895126992287178,5.895126992287178,0,1,1,-5.895126992287178,0A5.895126992287178,5.895126992287178,0,1,1,5.895126992287178,0" style="fill: #b279a2; stroke-width: 2; opacity: 0.7;"></path><path transform="translate(142.0995748973269,52.5)" d="M3.4294067796827665,0A3.4294067796827665,3.4294067796827665,0,1,1,-3.4294067796827665,0A3.4294067796827665,3.4294067796827665,0,1,1,3.4294067796827665,0" style="fill: #e45756; stroke-width: 2; opacity: 0.7;"></path><path transform="translate(142.0995748973269,178.5)" d="M1.0894013274388457,0A1.0894013274388457,1.0894013274388457,0,1,1,-1.0894013274388457,0A1.0894013274388457,1.0894013274388457,0,1,1,1.0894013274388457,0" style="fill: #9d755d; stroke-width: 2; opacity: 0.7;"></path><path transform="translate(147.37373009582825,94.5)" d="M2.3968946279648518,0A2.3968946279648518,2.3968946279648518,0,1,1,-2.3968946279648518,0A2.3968946279648518,2.3968946279648518,0,1,1,2.3968946279648518,0" style="fill: #54a24b; stroke-width: 2; opacity: 0.7;"></path><path transform="translate(147.37373009582825,136.5)" d="M6.16075451080736,0A6.16075451080736,6.16075451080736,0,1,1,-6.16075451080736,0A6.16075451080736,6.16075451080736,0,1,1,6.16075451080736,0" style="fill: #b279a2; stroke-width: 2; opacity: 0.7;"></path><path transform="translate(147.37373009582825,10.5)" d="M2.9032367080190546,0A2.9032367080190546,2.9032367080190546,0,1,1,-2.9032367080190546,0A2.9032367080190546,2.9032367080190546,0,1,1,2.9032367080190546,0" style="fill: #4c78a8; stroke-width: 2; opacity: 0.7;"></path><path transform="translate(147.37373009582825,52.5)" d="M3.3411382413444795,0A3.3411382413444795,3.3411382413444795,0,1,1,-3.3411382413444795,0A3.3411382413444795,3.3411382413444795,0,1,1,3.3411382413444795,0" style="fill: #e45756; stroke-width: 2; opacity: 0.7;"></path><path transform="translate(147.37373009582825,73.5)" d="M4.205514254923879,0A4.205514254923879,4.205514254923879,0,1,1,-4.205514254923879,0A4.205514254923879,4.205514254923879,0,1,1,4.205514254923879,0" style="fill: #72b7b2; stroke-width: 2; opacity: 0.7;"></path><path transform="translate(147.37373009582825,31.5)" d="M2.5212744645944487,0A2.5212744645944487,2.5212744645944487,0,1,1,-2.5212744645944487,0A2.5212744645944487,2.5212744645944487,0,1,1,2.5212744645944487,0" style="fill: #f58518; stroke-width: 2; opacity: 0.7;"></path><path transform="translate(147.37373009582825,115.5)" d="M3.961835740314636,0A3.961835740314636,3.961835740314636,0,1,1,-3.961835740314636,0A3.961835740314636,3.961835740314636,0,1,1,3.961835740314636,0" style="fill: #eeca3b; stroke-width: 2; opacity: 0.7;"></path><path transform="translate(147.37373009582825,157.5)" d="M3.206378102177694,0A3.206378102177694,3.206378102177694,0,1,1,-3.206378102177694,0A3.206378102177694,3.206378102177694,0,1,1,3.206378102177694,0" style="fill: #ff9da6; stroke-width: 2; opacity: 0.7;"></path><path transform="translate(147.37373009582825,178.5)" d="M1.3463325280050213,0A1.3463325280050213,1.3463325280050213,0,1,1,-1.3463325280050213,0A1.3463325280050213,1.3463325280050213,0,1,1,1.3463325280050213,0" style="fill: #9d755d; stroke-width: 2; opacity: 0.7;"></path><path transform="translate(152.63347503422438,178.5)" d="M1.625236800824332,0A1.625236800824332,1.625236800824332,0,1,1,-1.625236800824332,0A1.625236800824332,1.625236800824332,0,1,1,1.625236800824332,0" style="fill: #9d755d; stroke-width: 2; opacity: 0.7;"></path><path transform="translate(152.63347503422438,10.5)" d="M2.912930346703775,0A2.912930346703775,2.912930346703775,0,1,1,-2.912930346703775,0A2.912930346703775,2.912930346703775,0,1,1,2.912930346703775,0" style="fill: #4c78a8; stroke-width: 2; opacity: 0.7;"></path><path transform="translate(152.63347503422438,157.5)" d="M3.564829851400513,0A3.564829851400513,3.564829851400513,0,1,1,-3.564829851400513,0A3.564829851400513,3.564829851400513,0,1,1,3.564829851400513,0" style="fill: #ff9da6; stroke-width: 2; opacity: 0.7;"></path><path transform="translate(152.63347503422438,31.5)" d="M2.5100687448469547,0A2.5100687448469547,2.5100687448469547,0,1,1,-2.5100687448469547,0A2.5100687448469547,2.5100687448469547,0,1,1,2.5100687448469547,0" style="fill: #f58518; stroke-width: 2; opacity: 0.7;"></path><path transform="translate(152.63347503422438,136.5)" d="M6.179030298539332,0A6.179030298539332,6.179030298539332,0,1,1,-6.179030298539332,0A6.179030298539332,6.179030298539332,0,1,1,6.179030298539332,0" style="fill: #b279a2; stroke-width: 2; opacity: 0.7;"></path><path transform="translate(152.63347503422438,52.5)" d="M3.2617284380464344,0A3.2617284380464344,3.2617284380464344,0,1,1,-3.2617284380464344,0A3.2617284380464344,3.2617284380464344,0,1,1,3.2617284380464344,0" style="fill: #e45756; stroke-width: 2; opacity: 0.7;"></path><path transform="translate(152.63347503422438,115.5)" d="M3.9696549267396937,0A3.9696549267396937,3.9696549267396937,0,1,1,-3.9696549267396937,0A3.9696549267396937,3.9696549267396937,0,1,1,3.9696549267396937,0" style="fill: #eeca3b; stroke-width: 2; opacity: 0.7;"></path><path transform="translate(152.63347503422438,73.5)" d="M4.4910891001669055,0A4.4910891001669055,4.4910891001669055,0,1,1,-4.4910891001669055,0A4.4910891001669055,4.4910891001669055,0,1,1,4.4910891001669055,0" style="fill: #72b7b2; stroke-width: 2; opacity: 0.7;"></path><path transform="translate(152.63347503422438,94.5)" d="M2.426699899773524,0A2.426699899773524,2.426699899773524,0,1,1,-2.426699899773524,0A2.426699899773524,2.426699899773524,0,1,1,2.426699899773524,0" style="fill: #54a24b; stroke-width: 2; opacity: 0.7;"></path><path transform="translate(157.8932199726205,136.5)" d="M6.159381640704341,0A6.159381640704341,6.159381640704341,0,1,1,-6.159381640704341,0A6.159381640704341,6.159381640704341,0,1,1,6.159381640704341,0" style="fill: #b279a2; stroke-width: 2; opacity: 0.7;"></path><path transform="translate(157.8932199726205,52.5)" d="M3.4498957108049324,0A3.4498957108049324,3.4498957108049324,0,1,1,-3.4498957108049324,0A3.4498957108049324,3.4498957108049324,0,1,1,3.4498957108049324,0" style="fill: #e45756; stroke-width: 2; opacity: 0.7;"></path><path transform="translate(157.8932199726205,157.5)" d="M3.8514323513817597,0A3.8514323513817597,3.8514323513817597,0,1,1,-3.8514323513817597,0A3.8514323513817597,3.8514323513817597,0,1,1,3.8514323513817597,0" style="fill: #ff9da6; stroke-width: 2; opacity: 0.7;"></path><path transform="translate(157.8932199726205,31.5)" d="M2.99405940011127,0A2.99405940011127,2.99405940011127,0,1,1,-2.99405940011127,0A2.99405940011127,2.99405940011127,0,1,1,2.99405940011127,0" style="fill: #f58518; stroke-width: 2; opacity: 0.7;"></path><path transform="translate(157.8932199726205,115.5)" d="M3.8660433004800843,0A3.8660433004800843,3.8660433004800843,0,1,1,-3.8660433004800843,0A3.8660433004800843,3.8660433004800843,0,1,1,3.8660433004800843,0" style="fill: #eeca3b; stroke-width: 2; opacity: 0.7;"></path><path transform="translate(157.8932199726205,94.5)" d="M2.4062850444478787,0A2.4062850444478787,2.4062850444478787,0,1,1,-2.4062850444478787,0A2.4062850444478787,2.4062850444478787,0,1,1,2.4062850444478787,0" style="fill: #54a24b; stroke-width: 2; opacity: 0.7;"></path><path transform="translate(157.8932199726205,73.5)" d="M5.129292730670959,0A5.129292730670959,5.129292730670959,0,1,1,-5.129292730670959,0A5.129292730670959,5.129292730670959,0,1,1,5.129292730670959,0" style="fill: #72b7b2; stroke-width: 2; opacity: 0.7;"></path><path transform="translate(157.8932199726205,10.5)" d="M2.9080875663859485,0A2.9080875663859485,2.9080875663859485,0,1,1,-2.9080875663859485,0A2.9080875663859485,2.9080875663859485,0,1,1,2.9080875663859485,0" style="fill: #4c78a8; stroke-width: 2; opacity: 0.7;"></path><path transform="translate(157.8932199726205,178.5)" d="M1.9950978497976137,0A1.9950978497976137,1.9950978497976137,0,1,1,-1.9950978497976137,0A1.9950978497976137,1.9950978497976137,0,1,1,1.9950978497976137,0" style="fill: #9d755d; stroke-width: 2; opacity: 0.7;"></path><path transform="translate(163.15296491101665,136.5)" d="M6.215193883929672,0A6.215193883929672,6.215193883929672,0,1,1,-6.215193883929672,0A6.215193883929672,6.215193883929672,0,1,1,6.215193883929672,0" style="fill: #b279a2; stroke-width: 2; opacity: 0.7;"></path><path transform="translate(163.15296491101665,73.5)" d="M5.869728204850124,0A5.869728204850124,5.869728204850124,0,1,1,-5.869728204850124,0A5.869728204850124,5.869728204850124,0,1,1,5.869728204850124,0" style="fill: #72b7b2; stroke-width: 2; opacity: 0.7;"></path><path transform="translate(163.15296491101665,178.5)" d="M2.3252580342439466,0A2.3252580342439466,2.3252580342439466,0,1,1,-2.3252580342439466,0A2.3252580342439466,2.3252580342439466,0,1,1,2.3252580342439466,0" style="fill: #9d755d; stroke-width: 2; opacity: 0.7;"></path><path transform="translate(163.15296491101665,31.5)" d="M3.061559308684624,0A3.061559308684624,3.061559308684624,0,1,1,-3.061559308684624,0A3.061559308684624,3.061559308684624,0,1,1,3.061559308684624,0" style="fill: #f58518; stroke-width: 2; opacity: 0.7;"></path><path transform="translate(163.15296491101665,115.5)" d="M3.7120383196630504,0A3.7120383196630504,3.7120383196630504,0,1,1,-3.7120383196630504,0A3.7120383196630504,3.7120383196630504,0,1,1,3.7120383196630504,0" style="fill: #eeca3b; stroke-width: 2; opacity: 0.7;"></path><path transform="translate(163.15296491101665,94.5)" d="M2.4903374099567848,0A2.4903374099567848,2.4903374099567848,0,1,1,-2.4903374099567848,0A2.4903374099567848,2.4903374099567848,0,1,1,2.4903374099567848,0" style="fill: #54a24b; stroke-width: 2; opacity: 0.7;"></path><path transform="translate(163.15296491101665,10.5)" d="M2.9080875663859485,0A2.9080875663859485,2.9080875663859485,0,1,1,-2.9080875663859485,0A2.9080875663859485,2.9080875663859485,0,1,1,2.9080875663859485,0" style="fill: #4c78a8; stroke-width: 2; opacity: 0.7;"></path><path transform="translate(163.15296491101665,52.5)" d="M3.578247834732186,0A3.578247834732186,3.578247834732186,0,1,1,-3.578247834732186,0A3.578247834732186,3.578247834732186,0,1,1,3.578247834732186,0" style="fill: #e45756; stroke-width: 2; opacity: 0.7;"></path><path transform="translate(163.15296491101665,157.5)" d="M4.169160480215686,0A4.169160480215686,4.169160480215686,0,1,1,-4.169160480215686,0A4.169160480215686,4.169160480215686,0,1,1,4.169160480215686,0" style="fill: #ff9da6; stroke-width: 2; opacity: 0.7;"></path><path transform="translate(168.42712010951797,115.5)" d="M3.4453986000683745,0A3.4453986000683745,3.4453986000683745,0,1,1,-3.4453986000683745,0A3.4453986000683745,3.4453986000683745,0,1,1,3.4453986000683745,0" style="fill: #eeca3b; stroke-width: 2; opacity: 0.7;"></path><path transform="translate(168.42712010951797,157.5)" d="M4.533259876055813,0A4.533259876055813,4.533259876055813,0,1,1,-4.533259876055813,0A4.533259876055813,4.533259876055813,0,1,1,4.533259876055813,0" style="fill: #ff9da6; stroke-width: 2; opacity: 0.7;"></path><path transform="translate(168.42712010951797,136.5)" d="M6.245283086527026,0A6.245283086527026,6.245283086527026,0,1,1,-6.245283086527026,0A6.245283086527026,6.245283086527026,0,1,1,6.245283086527026,0" style="fill: #b279a2; stroke-width: 2; opacity: 0.7;"></path><path transform="translate(168.42712010951797,52.5)" d="M3.548184640534289,0A3.548184640534289,3.548184640534289,0,1,1,-3.548184640534289,0A3.548184640534289,3.548184640534289,0,1,1,3.548184640534289,0" style="fill: #e45756; stroke-width: 2; opacity: 0.7;"></path><path transform="translate(168.42712010951797,73.5)" d="M7.228611138462071,0A7.228611138462071,7.228611138462071,0,1,1,-7.228611138462071,0A7.228611138462071,7.228611138462071,0,1,1,7.228611138462071,0" style="fill: #72b7b2; stroke-width: 2; opacity: 0.7;"></path><path transform="translate(168.42712010951797,31.5)" d="M3.1366030880158777,0A3.1366030880158777,3.1366030880158777,0,1,1,-3.1366030880158777,0A3.1366030880158777,3.1366030880158777,0,1,1,3.1366030880158777,0" style="fill: #f58518; stroke-width: 2; opacity: 0.7;"></path><path transform="translate(168.42712010951797,178.5)" d="M2.5918440899001136,0A2.5918440899001136,2.5918440899001136,0,1,1,-2.5918440899001136,0A2.5918440899001136,2.5918440899001136,0,1,1,2.5918440899001136,0" style="fill: #9d755d; stroke-width: 2; opacity: 0.7;"></path><path transform="translate(168.42712010951797,10.5)" d="M2.9032367080190546,0A2.9032367080190546,2.9032367080190546,0,1,1,-2.9032367080190546,0A2.9032367080190546,2.9032367080190546,0,1,1,2.9032367080190546,0" style="fill: #4c78a8; stroke-width: 2; opacity: 0.7;"></path><path transform="translate(168.42712010951797,94.5)" d="M2.5683533964662,0A2.5683533964662,2.5683533964662,0,1,1,-2.5683533964662,0A2.5683533964662,2.5683533964662,0,1,1,2.5683533964662,0" style="fill: #54a24b; stroke-width: 2; opacity: 0.7;"></path><path transform="translate(173.6868650479141,157.5)" d="M5.0105822733591445,0A5.0105822733591445,5.0105822733591445,0,1,1,-5.0105822733591445,0A5.0105822733591445,5.0105822733591445,0,1,1,5.0105822733591445,0" style="fill: #ff9da6; stroke-width: 2; opacity: 0.7;"></path><path transform="translate(173.6868650479141,115.5)" d="M3.001582174280995,0A3.001582174280995,3.001582174280995,0,1,1,-3.001582174280995,0A3.001582174280995,3.001582174280995,0,1,1,3.001582174280995,0" style="fill: #eeca3b; stroke-width: 2; opacity: 0.7;"></path><path transform="translate(173.6868650479141,94.5)" d="M2.917765089195325,0A2.917765089195325,2.917765089195325,0,1,1,-2.917765089195325,0A2.917765089195325,2.917765089195325,0,1,1,2.917765089195325,0" style="fill: #54a24b; stroke-width: 2; opacity: 0.7;"></path><path transform="translate(173.6868650479141,73.5)" d="M7.7466562136564185,0A7.7466562136564185,7.7466562136564185,0,1,1,-7.7466562136564185,0A7.7466562136564185,7.7466562136564185,0,1,1,7.7466562136564185,0" style="fill: #72b7b2; stroke-width: 2; opacity: 0.7;"></path><path transform="translate(173.6868650479141,136.5)" d="M6.287569574745875,0A6.287569574745875,6.287569574745875,0,1,1,-6.287569574745875,0A6.287569574745875,6.287569574745875,0,1,1,6.287569574745875,0" style="fill: #b279a2; stroke-width: 2; opacity: 0.7;"></path><path transform="translate(173.6868650479141,178.5)" d="M2.921144647807168,0A2.921144647807168,2.921144647807168,0,1,1,-2.921144647807168,0A2.921144647807168,2.921144647807168,0,1,1,2.921144647807168,0" style="fill: #9d755d; stroke-width: 2; opacity: 0.7;"></path><path transform="translate(173.6868650479141,31.5)" d="M3.4633520066059877,0A3.4633520066059877,3.4633520066059877,0,1,1,-3.4633520066059877,0A3.4633520066059877,3.4633520066059877,0,1,1,3.4633520066059877,0" style="fill: #f58518; stroke-width: 2; opacity: 0.7;"></path><path transform="translate(173.6868650479141,52.5)" d="M4.397531004069299,0A4.397531004069299,4.397531004069299,0,1,1,-4.397531004069299,0A4.397531004069299,4.397531004069299,0,1,1,4.397531004069299,0" style="fill: #e45756; stroke-width: 2; opacity: 0.7;"></path><path transform="translate(173.6868650479141,10.5)" d="M2.9032367080190546,0A2.9032367080190546,2.9032367080190546,0,1,1,-2.9032367080190546,0A2.9032367080190546,2.9032367080190546,0,1,1,2.9032367080190546,0" style="fill: #4c78a8; stroke-width: 2; opacity: 0.7;"></path><path transform="translate(178.94660998631025,10.5)" d="M2.9032367080190546,0A2.9032367080190546,2.9032367080190546,0,1,1,-2.9032367080190546,0A2.9032367080190546,2.9032367080190546,0,1,1,2.9032367080190546,0" style="fill: #4c78a8; stroke-width: 2; opacity: 0.7;"></path><path transform="translate(178.94660998631025,52.5)" d="M4.532016012710665,0A4.532016012710665,4.532016012710665,0,1,1,-4.532016012710665,0A4.532016012710665,4.532016012710665,0,1,1,4.532016012710665,0" style="fill: #e45756; stroke-width: 2; opacity: 0.7;"></path><path transform="translate(178.94660998631025,157.5)" d="M5.376948270189768,0A5.376948270189768,5.376948270189768,0,1,1,-5.376948270189768,0A5.376948270189768,5.376948270189768,0,1,1,5.376948270189768,0" style="fill: #ff9da6; stroke-width: 2; opacity: 0.7;"></path><path transform="translate(178.94660998631025,115.5)" d="M3.135704219079806,0A3.135704219079806,3.135704219079806,0,1,1,-3.135704219079806,0A3.135704219079806,3.135704219079806,0,1,1,3.135704219079806,0" style="fill: #eeca3b; stroke-width: 2; opacity: 0.7;"></path><path transform="translate(178.94660998631025,31.5)" d="M3.4633520066059877,0A3.4633520066059877,3.4633520066059877,0,1,1,-3.4633520066059877,0A3.4633520066059877,3.4633520066059877,0,1,1,3.4633520066059877,0" style="fill: #f58518; stroke-width: 2; opacity: 0.7;"></path><path transform="translate(178.94660998631025,178.5)" d="M3.12715207796077,0A3.12715207796077,3.12715207796077,0,1,1,-3.12715207796077,0A3.12715207796077,3.12715207796077,0,1,1,3.12715207796077,0" style="fill: #9d755d; stroke-width: 2; opacity: 0.7;"></path><path transform="translate(178.94660998631025,136.5)" d="M6.308829947904183,0A6.308829947904183,6.308829947904183,0,1,1,-6.308829947904183,0A6.308829947904183,6.308829947904183,0,1,1,6.308829947904183,0" style="fill: #b279a2; stroke-width: 2; opacity: 0.7;"></path><path transform="translate(178.94660998631025,73.5)" d="M8.052479943124439,0A8.052479943124439,8.052479943124439,0,1,1,-8.052479943124439,0A8.052479943124439,8.052479943124439,0,1,1,8.052479943124439,0" style="fill: #72b7b2; stroke-width: 2; opacity: 0.7;"></path><path transform="translate(178.94660998631025,94.5)" d="M3.145577650243147,0A3.145577650243147,3.145577650243147,0,1,1,-3.145577650243147,0A3.145577650243147,3.145577650243147,0,1,1,3.145577650243147,0" style="fill: #54a24b; stroke-width: 2; opacity: 0.7;"></path><path transform="translate(184.20635492470637,94.5)" d="M3.2836931874879687,0A3.2836931874879687,3.2836931874879687,0,1,1,-3.2836931874879687,0A3.2836931874879687,3.2836931874879687,0,1,1,3.2836931874879687,0" style="fill: #54a24b; stroke-width: 2; opacity: 0.7;"></path><path transform="translate(184.20635492470637,73.5)" d="M8.423085417619975,0A8.423085417619975,8.423085417619975,0,1,1,-8.423085417619975,0A8.423085417619975,8.423085417619975,0,1,1,8.423085417619975,0" style="fill: #72b7b2; stroke-width: 2; opacity: 0.7;"></path><path transform="translate(184.20635492470637,178.5)" d="M3.481212824572828,0A3.481212824572828,3.481212824572828,0,1,1,-3.481212824572828,0A3.481212824572828,3.481212824572828,0,1,1,3.481212824572828,0" style="fill: #9d755d; stroke-width: 2; opacity: 0.7;"></path><path transform="translate(184.20635492470637,157.5)" d="M5.4969778586633415,0A5.4969778586633415,5.4969778586633415,0,1,1,-5.4969778586633415,0A5.4969778586633415,5.4969778586633415,0,1,1,5.4969778586633415,0" style="fill: #ff9da6; stroke-width: 2; opacity: 0.7;"></path><path transform="translate(184.20635492470637,136.5)" d="M6.375944684762047,0A6.375944684762047,6.375944684762047,0,1,1,-6.375944684762047,0A6.375944684762047,6.375944684762047,0,1,1,6.375944684762047,0" style="fill: #b279a2; stroke-width: 2; opacity: 0.7;"></path><path transform="translate(184.20635492470637,31.5)" d="M3.4633520066059877,0A3.4633520066059877,3.4633520066059877,0,1,1,-3.4633520066059877,0A3.4633520066059877,3.4633520066059877,0,1,1,3.4633520066059877,0" style="fill: #f58518; stroke-width: 2; opacity: 0.7;"></path><path transform="translate(184.20635492470637,115.5)" d="M3.1235441712757925,0A3.1235441712757925,3.1235441712757925,0,1,1,-3.1235441712757925,0A3.1235441712757925,3.1235441712757925,0,1,1,3.1235441712757925,0" style="fill: #eeca3b; stroke-width: 2; opacity: 0.7;"></path><path transform="translate(184.20635492470637,52.5)" d="M4.559302617296102,0A4.559302617296102,4.559302617296102,0,1,1,-4.559302617296102,0A4.559302617296102,4.559302617296102,0,1,1,4.559302617296102,0" style="fill: #e45756; stroke-width: 2; opacity: 0.7;"></path><path transform="translate(184.20635492470637,10.5)" d="M2.9032367080190546,0A2.9032367080190546,2.9032367080190546,0,1,1,-2.9032367080190546,0A2.9032367080190546,2.9032367080190546,0,1,1,2.9032367080190546,0" style="fill: #4c78a8; stroke-width: 2; opacity: 0.7;"></path><path transform="translate(189.48051012320772,10.5)" d="M2.9032367080190546,0A2.9032367080190546,2.9032367080190546,0,1,1,-2.9032367080190546,0A2.9032367080190546,2.9032367080190546,0,1,1,2.9032367080190546,0" style="fill: #4c78a8; stroke-width: 2; opacity: 0.7;"></path><path transform="translate(189.48051012320772,178.5)" d="M3.784612763354528,0A3.784612763354528,3.784612763354528,0,1,1,-3.784612763354528,0A3.784612763354528,3.784612763354528,0,1,1,3.784612763354528,0" style="fill: #9d755d; stroke-width: 2; opacity: 0.7;"></path><path transform="translate(189.48051012320772,136.5)" d="M6.4515427271956325,0A6.4515427271956325,6.4515427271956325,0,1,1,-6.4515427271956325,0A6.4515427271956325,6.4515427271956325,0,1,1,6.4515427271956325,0" style="fill: #b279a2; stroke-width: 2; opacity: 0.7;"></path><path transform="translate(189.48051012320772,31.5)" d="M3.4633520066059877,0A3.4633520066059877,3.4633520066059877,0,1,1,-3.4633520066059877,0A3.4633520066059877,3.4633520066059877,0,1,1,3.4633520066059877,0" style="fill: #f58518; stroke-width: 2; opacity: 0.7;"></path><path transform="translate(189.48051012320772,52.5)" d="M4.575966113879224,0A4.575966113879224,4.575966113879224,0,1,1,-4.575966113879224,0A4.575966113879224,4.575966113879224,0,1,1,4.575966113879224,0" style="fill: #e45756; stroke-width: 2; opacity: 0.7;"></path><path transform="translate(189.48051012320772,94.5)" d="M3.475134222372063,0A3.475134222372063,3.475134222372063,0,1,1,-3.475134222372063,0A3.475134222372063,3.475134222372063,0,1,1,3.475134222372063,0" style="fill: #54a24b; stroke-width: 2; opacity: 0.7;"></path><path transform="translate(189.48051012320772,157.5)" d="M5.670149334171905,0A5.670149334171905,5.670149334171905,0,1,1,-5.670149334171905,0A5.670149334171905,5.670149334171905,0,1,1,5.670149334171905,0" style="fill: #ff9da6; stroke-width: 2; opacity: 0.7;"></path><path transform="translate(189.48051012320772,73.5)" d="M8.667206861350897,0A8.667206861350897,8.667206861350897,0,1,1,-8.667206861350897,0A8.667206861350897,8.667206861350897,0,1,1,8.667206861350897,0" style="fill: #72b7b2; stroke-width: 2; opacity: 0.7;"></path><path transform="translate(189.48051012320772,115.5)" d="M3.117672417948682,0A3.117672417948682,3.117672417948682,0,1,1,-3.117672417948682,0A3.117672417948682,3.117672417948682,0,1,1,3.117672417948682,0" style="fill: #eeca3b; stroke-width: 2; opacity: 0.7;"></path><path transform="translate(194.74025506160388,10.5)" d="M2.9032367080190546,0A2.9032367080190546,2.9032367080190546,0,1,1,-2.9032367080190546,0A2.9032367080190546,2.9032367080190546,0,1,1,2.9032367080190546,0" style="fill: #4c78a8; stroke-width: 2; opacity: 0.7;"></path><path transform="translate(194.74025506160388,136.5)" d="M6.508314700242201,0A6.508314700242201,6.508314700242201,0,1,1,-6.508314700242201,0A6.508314700242201,6.508314700242201,0,1,1,6.508314700242201,0" style="fill: #b279a2; stroke-width: 2; opacity: 0.7;"></path><path transform="translate(194.74025506160388,31.5)" d="M3.4694512517299567,0A3.4694512517299567,3.4694512517299567,0,1,1,-3.4694512517299567,0A3.4694512517299567,3.4694512517299567,0,1,1,3.4694512517299567,0" style="fill: #f58518; stroke-width: 2; opacity: 0.7;"></path><path transform="translate(194.74025506160388,157.5)" d="M6.083396677312039,0A6.083396677312039,6.083396677312039,0,1,1,-6.083396677312039,0A6.083396677312039,6.083396677312039,0,1,1,6.083396677312039,0" style="fill: #ff9da6; stroke-width: 2; opacity: 0.7;"></path><path transform="translate(194.74025506160388,178.5)" d="M3.9774587416518887,0A3.9774587416518887,3.9774587416518887,0,1,1,-3.9774587416518887,0A3.9774587416518887,3.9774587416518887,0,1,1,3.9774587416518887,0" style="fill: #9d755d; stroke-width: 2; opacity: 0.7;"></path><path transform="translate(194.74025506160388,73.5)" d="M9.242656881625217,0A9.242656881625217,9.242656881625217,0,1,1,-9.242656881625217,0A9.242656881625217,9.242656881625217,0,1,1,9.242656881625217,0" style="fill: #72b7b2; stroke-width: 2; opacity: 0.7;"></path><path transform="translate(194.74025506160388,52.5)" d="M4.568567618961196,0A4.568567618961196,4.568567618961196,0,1,1,-4.568567618961196,0A4.568567618961196,4.568567618961196,0,1,1,4.568567618961196,0" style="fill: #e45756; stroke-width: 2; opacity: 0.7;"></path><path transform="translate(194.74025506160388,94.5)" d="M3.501801147404631,0A3.501801147404631,3.501801147404631,0,1,1,-3.501801147404631,0A3.501801147404631,3.501801147404631,0,1,1,3.501801147404631,0" style="fill: #54a24b; stroke-width: 2; opacity: 0.7;"></path><path transform="translate(194.74025506160388,115.5)" d="M3.1352546879730476,0A3.1352546879730476,3.1352546879730476,0,1,1,-3.1352546879730476,0A3.1352546879730476,3.1352546879730476,0,1,1,3.1352546879730476,0" style="fill: #eeca3b; stroke-width: 2; opacity: 0.7;"></path><path transform="translate(200,52.5)" d="M4.554972500544012,0A4.554972500544012,4.554972500544012,0,1,1,-4.554972500544012,0A4.554972500544012,4.554972500544012,0,1,1,4.554972500544012,0" style="fill: #e45756; stroke-width: 2; opacity: 0.7;"></path><path transform="translate(200,115.5)" d="M3.311476312903337,0A3.311476312903337,3.311476312903337,0,1,1,-3.311476312903337,0A3.311476312903337,3.311476312903337,0,1,1,3.311476312903337,0" style="fill: #eeca3b; stroke-width: 2; opacity: 0.7;"></path><path transform="translate(200,31.5)" d="M3.4674193620963916,0A3.4674193620963916,3.4674193620963916,0,1,1,-3.4674193620963916,0A3.4674193620963916,3.4674193620963916,0,1,1,3.4674193620963916,0" style="fill: #f58518; stroke-width: 2; opacity: 0.7;"></path><path transform="translate(200,136.5)" d="M6.66918597304249,0A6.66918597304249,6.66918597304249,0,1,1,-6.66918597304249,0A6.66918597304249,6.66918597304249,0,1,1,6.66918597304249,0" style="fill: #b279a2; stroke-width: 2; opacity: 0.7;"></path><path transform="translate(200,94.5)" d="M3.7256827785215565,0A3.7256827785215565,3.7256827785215565,0,1,1,-3.7256827785215565,0A3.7256827785215565,3.7256827785215565,0,1,1,3.7256827785215565,0" style="fill: #54a24b; stroke-width: 2; opacity: 0.7;"></path><path transform="translate(200,157.5)" d="M6.654375415181511,0A6.654375415181511,6.654375415181511,0,1,1,-6.654375415181511,0A6.654375415181511,6.654375415181511,0,1,1,6.654375415181511,0" style="fill: #ff9da6; stroke-width: 2; opacity: 0.7;"></path><path transform="translate(200,10.5)" d="M2.951386537304391,0A2.951386537304391,2.951386537304391,0,1,1,-2.951386537304391,0A2.951386537304391,2.951386537304391,0,1,1,2.951386537304391,0" style="fill: #4c78a8; stroke-width: 2; opacity: 0.7;"></path><path transform="translate(200,73.5)" d="M9.5,0A9.5,9.5,0,1,1,-9.5,0A9.5,9.5,0,1,1,9.5,0" style="fill: #72b7b2; stroke-width: 2; opacity: 0.7;"></path><path transform="translate(200,178.5)" d="M4.2229063079187465,0A4.2229063079187465,4.2229063079187465,0,1,1,-4.2229063079187465,0A4.2229063079187465,4.2229063079187465,0,1,1,4.2229063079187465,0" style="fill: #9d755d; stroke-width: 2; opacity: 0.7;"></path></g><g class="mark-group role-legend"><g transform="translate(218,0)"><path class="background" d="M0,0h41v147h-41Z" style="pointer-events: none; fill: none;"></path><g><g class="mark-group role-legend-entry"><g transform="translate(0,16)"><path class="background" d="M0,0h0v0h0Z" style="pointer-events: none; fill: none;"></path><g><g class="mark-symbol role-legend-symbol" style="pointer-events: none;"><path transform="translate(5,5)" d="M5,0A5,5,0,1,1,-5,0A5,5,0,1,1,5,0" style="fill: #4c78a8; stroke-width: 1.5; opacity: 0.7;"></path><path transform="translate(5,20)" d="M5,0A5,5,0,1,1,-5,0A5,5,0,1,1,5,0" style="fill: #f58518; stroke-width: 1.5; opacity: 0.7;"></path><path transform="translate(5,35)" d="M5,0A5,5,0,1,1,-5,0A5,5,0,1,1,5,0" style="fill: #e45756; stroke-width: 1.5; opacity: 0.7;"></path><path transform="translate(5,50)" d="M5,0A5,5,0,1,1,-5,0A5,5,0,1,1,5,0" style="fill: #72b7b2; stroke-width: 1.5; opacity: 0.7;"></path><path transform="translate(5,65)" d="M5,0A5,5,0,1,1,-5,0A5,5,0,1,1,5,0" style="fill: #54a24b; stroke-width: 1.5; opacity: 0.7;"></path><path transform="translate(5,80)" d="M5,0A5,5,0,1,1,-5,0A5,5,0,1,1,5,0" style="fill: #eeca3b; stroke-width: 1.5; opacity: 0.7;"></path><path transform="translate(5,95)" d="M5,0A5,5,0,1,1,-5,0A5,5,0,1,1,5,0" style="fill: #b279a2; stroke-width: 1.5; opacity: 0.7;"></path><path transform="translate(5,110)" d="M5,0A5,5,0,1,1,-5,0A5,5,0,1,1,5,0" style="fill: #ff9da6; stroke-width: 1.5; opacity: 0.7;"></path><path transform="translate(5,125)" d="M5,0A5,5,0,1,1,-5,0A5,5,0,1,1,5,0" style="fill: #9d755d; stroke-width: 1.5; opacity: 0.7;"></path></g><g class="mark-text role-legend-label" style="pointer-events: none;"><text text-anchor="start" transform="translate(18,8)" style="font: 10px sans-serif; fill: #000; opacity: 1;">0001</text><text text-anchor="start" transform="translate(18,23)" style="font: 10px sans-serif; fill: #000; opacity: 1;">0002</text><text text-anchor="start" transform="translate(18,38)" style="font: 10px sans-serif; fill: #000; opacity: 1;">0005</text><text text-anchor="start" transform="translate(18,53)" style="font: 10px sans-serif; fill: #000; opacity: 1;">0010</text><text text-anchor="start" transform="translate(18,68)" style="font: 10px sans-serif; fill: #000; opacity: 1;">0020</text><text text-anchor="start" transform="translate(18,83)" style="font: 10px sans-serif; fill: #000; opacity: 1;">0050</text><text text-anchor="start" transform="translate(18,98)" style="font: 10px sans-serif; fill: #000; opacity: 1;">0100</text><text text-anchor="start" transform="translate(18,113)" style="font: 10px sans-serif; fill: #000; opacity: 1;">0500</text><text text-anchor="start" transform="translate(18,128)" style="font: 10px sans-serif; fill: #000; opacity: 1;">1000</text></g></g></g></g><g class="mark-text role-legend-title" style="pointer-events: none;"><text text-anchor="start" transform="translate(0,9)" style="font: bold 11px sans-serif; fill: #000; opacity: 1;">denom</text></g></g></g></g><g class="mark-group role-legend"><g transform="translate(218,155)"><path class="background" d="M0,0h42v129h-42Z" style="pointer-events: none; fill: none;"></path><g><g class="mark-group role-legend-entry"><g transform="translate(0,16)"><path class="background" d="M0,0h0v0h0Z" style="pointer-events: none; fill: none;"></path><g><g class="mark-symbol role-legend-symbol" style="pointer-events: none;"><path transform="translate(9.5,5)" d="M3.7543249046418774,0A3.7543249046418774,3.7543249046418774,0,1,1,-3.7543249046418774,0A3.7543249046418774,3.7543249046418774,0,1,1,3.7543249046418774,0" style="fill: transparent; stroke: #888; stroke-width: 1.5; opacity: 0.7;"></path><path transform="translate(9.5,20.5)" d="M5.30941719769962,0A5.30941719769962,5.30941719769962,0,1,1,-5.30941719769962,0A5.30941719769962,5.30941719769962,0,1,1,5.30941719769962,0" style="fill: transparent; stroke: #888; stroke-width: 1.5; opacity: 0.7;"></path><path transform="translate(9.5,38)" d="M6.502681482960912,0A6.502681482960912,6.502681482960912,0,1,1,-6.502681482960912,0A6.502681482960912,6.502681482960912,0,1,1,6.502681482960912,0" style="fill: transparent; stroke: #888; stroke-width: 1.5; opacity: 0.7;"></path><path transform="translate(9.5,58)" d="M7.508649809283755,0A7.508649809283755,7.508649809283755,0,1,1,-7.508649809283755,0A7.508649809283755,7.508649809283755,0,1,1,7.508649809283755,0" style="fill: transparent; stroke: #888; stroke-width: 1.5; opacity: 0.7;"></path><path transform="translate(9.5,79.5)" d="M8.394925696399653,0A8.394925696399653,8.394925696399653,0,1,1,-8.394925696399653,0A8.394925696399653,8.394925696399653,0,1,1,8.394925696399653,0" style="fill: transparent; stroke: #888; stroke-width: 1.5; opacity: 0.7;"></path><path transform="translate(9.5,102.5)" d="M9.196180344995712,0A9.196180344995712,9.196180344995712,0,1,1,-9.196180344995712,0A9.196180344995712,9.196180344995712,0,1,1,9.196180344995712,0" style="fill: transparent; stroke: #888; stroke-width: 1.5; opacity: 0.7;"></path></g><g class="mark-text role-legend-label" style="pointer-events: none;"><text text-anchor="start" transform="translate(27,8)" style="font: 10px sans-serif; fill: #000; opacity: 1;">5</text><text text-anchor="start" transform="translate(27,23.5)" style="font: 10px sans-serif; fill: #000; opacity: 1;">10</text><text text-anchor="start" transform="translate(27,41)" style="font: 10px sans-serif; fill: #000; opacity: 1;">15</text><text text-anchor="start" transform="translate(27,61)" style="font: 10px sans-serif; fill: #000; opacity: 1;">20</text><text text-anchor="start" transform="translate(27,82.5)" style="font: 10px sans-serif; fill: #000; opacity: 1;">25</text><text text-anchor="start" transform="translate(27,105.5)" style="font: 10px sans-serif; fill: #000; opacity: 1;">30</text></g></g></g></g><g class="mark-text role-legend-title" style="pointer-events: none;"><text text-anchor="start" transform="translate(0,9)" style="font: bold 11px sans-serif; fill: #000; opacity: 1;">number</text></g></g></g></g><g class="mark-group role-axis"><g transform="translate(0.5,189.5)"><path class="background" d="M0,0h0v0h0Z" style="pointer-events: none; fill: none;"></path><g><g class="mark-rule role-axis-tick" style="pointer-events: none;"><line transform="translate(16,0)" x2="0" y2="5" style="fill: none; stroke: #888; stroke-width: 1; opacity: 1;"></line><line transform="translate(68,0)" x2="0" y2="5" style="fill: none; stroke: #888; stroke-width: 1; opacity: 1;"></line><line transform="translate(121,0)" x2="0" y2="5" style="fill: none; stroke: #888; stroke-width: 1; opacity: 1;"></line><line transform="translate(174,0)" x2="0" y2="5" style="fill: none; stroke: #888; stroke-width: 1; opacity: 1;"></line></g><g class="mark-text role-axis-label" style="pointer-events: none;"><text text-anchor="middle" transform="translate(15.775932463914307,15)" style="font: 10px sans-serif; fill: #000; opacity: 1;">Jan 01, 1980</text><text text-anchor="middle" transform="translate(68.41661262819127,15)" style="font: 10px sans-serif; fill: #000; opacity: 0;">Jan 01, 1990</text><text text-anchor="middle" transform="translate(121.04288253236304,15)" style="font: 10px sans-serif; fill: #000; opacity: 0;">Jan 01, 2000</text><text text-anchor="middle" transform="translate(173.68356269664,15)" style="font: 10px sans-serif; fill: #000; opacity: 1;">Jan 01, 2010</text></g><g class="mark-rule role-axis-domain" style="pointer-events: none;"><line transform="translate(0,0)" x2="200" y2="0" style="fill: none; stroke: #888; stroke-width: 1; opacity: 1;"></line></g><g class="mark-text role-axis-title" style="pointer-events: none;"><text text-anchor="middle" transform="translate(100,31)" style="font: bold 11px sans-serif; fill: #000; opacity: 1;">year</text></g></g></g></g><g class="mark-group role-axis"><g transform="translate(0.5,0.5)"><path class="background" d="M0,0h0v0h0Z" style="pointer-events: none; fill: none;"></path><g><g class="mark-rule role-axis-tick" style="pointer-events: none;"><line transform="translate(0,11)" x2="-5" y2="0" style="fill: none; stroke: #888; stroke-width: 1; opacity: 1;"></line><line transform="translate(0,32)" x2="-5" y2="0" style="fill: none; stroke: #888; stroke-width: 1; opacity: 1;"></line><line transform="translate(0,53)" x2="-5" y2="0" style="fill: none; stroke: #888; stroke-width: 1; opacity: 1;"></line><line transform="translate(0,74)" x2="-5" y2="0" style="fill: none; stroke: #888; stroke-width: 1; opacity: 1;"></line><line transform="translate(0,95)" x2="-5" y2="0" style="fill: none; stroke: #888; stroke-width: 1; opacity: 1;"></line><line transform="translate(0,116)" x2="-5" y2="0" style="fill: none; stroke: #888; stroke-width: 1; opacity: 1;"></line><line transform="translate(0,137)" x2="-5" y2="0" style="fill: none; stroke: #888; stroke-width: 1; opacity: 1;"></line><line transform="translate(0,158)" x2="-5" y2="0" style="fill: none; stroke: #888; stroke-width: 1; opacity: 1;"></line><line transform="translate(0,179)" x2="-5" y2="0" style="fill: none; stroke: #888; stroke-width: 1; opacity: 1;"></line></g><g class="mark-text role-axis-label" style="pointer-events: none;"><text text-anchor="end" transform="translate(-7,13.5)" style="font: 10px sans-serif; fill: #000; opacity: 1;">0001</text><text text-anchor="end" transform="translate(-7,34.5)" style="font: 10px sans-serif; fill: #000; opacity: 1;">0002</text><text text-anchor="end" transform="translate(-7,55.5)" style="font: 10px sans-serif; fill: #000; opacity: 1;">0005</text><text text-anchor="end" transform="translate(-7,76.5)" style="font: 10px sans-serif; fill: #000; opacity: 1;">0010</text><text text-anchor="end" transform="translate(-7,97.5)" style="font: 10px sans-serif; fill: #000; opacity: 1;">0020</text><text text-anchor="end" transform="translate(-7,118.5)" style="font: 10px sans-serif; fill: #000; opacity: 1;">0050</text><text text-anchor="end" transform="translate(-7,139.5)" style="font: 10px sans-serif; fill: #000; opacity: 1;">0100</text><text text-anchor="end" transform="translate(-7,160.5)" style="font: 10px sans-serif; fill: #000; opacity: 1;">0500</text><text text-anchor="end" transform="translate(-7,181.5)" style="font: 10px sans-serif; fill: #000; opacity: 1;">1000</text></g><g class="mark-rule role-axis-domain" style="pointer-events: none;"><line transform="translate(0,0)" x2="0" y2="189" style="fill: none; stroke: #888; stroke-width: 1; opacity: 1;"></line></g><g class="mark-text role-axis-title" style="pointer-events: none;"><text text-anchor="middle" transform="translate(-34.24609375,94.5) rotate(-90) translate(0,-2)" style="font: bold 11px sans-serif; fill: #000; opacity: 1;">denom</text></g></g></g></g></g></g></g></g></svg>